%TF.GenerationSoftware,KiCad,Pcbnew,8.0.3-8.0.3-0~ubuntu23.10.1*%
%TF.CreationDate,2024-09-30T16:30:17-04:00*%
%TF.ProjectId,nPM1300-Stamp,6e504d31-3330-4302-9d53-74616d702e6b,rev?*%
%TF.SameCoordinates,Original*%
%TF.FileFunction,Copper,L2,Inr*%
%TF.FilePolarity,Positive*%
%FSLAX46Y46*%
G04 Gerber Fmt 4.6, Leading zero omitted, Abs format (unit mm)*
G04 Created by KiCad (PCBNEW 8.0.3-8.0.3-0~ubuntu23.10.1) date 2024-09-30 16:30:17*
%MOMM*%
%LPD*%
G01*
G04 APERTURE LIST*
%TA.AperFunction,ComponentPad*%
%ADD10R,1.350000X1.350000*%
%TD*%
%TA.AperFunction,ComponentPad*%
%ADD11O,1.350000X1.350000*%
%TD*%
%TA.AperFunction,HeatsinkPad*%
%ADD12C,0.500000*%
%TD*%
%TA.AperFunction,ViaPad*%
%ADD13C,0.600000*%
%TD*%
G04 APERTURE END LIST*
D10*
%TO.N,GND*%
%TO.C,J4*%
X157000000Y-91000000D03*
D11*
%TO.N,/LED0*%
X155000000Y-91000000D03*
%TO.N,/LED1*%
X153000000Y-91000000D03*
%TO.N,/LED2*%
X151000000Y-91000000D03*
%TO.N,/LS1_IN*%
X149000000Y-91000000D03*
%TO.N,/LS1_OUT*%
X147000000Y-91000000D03*
%TO.N,/LS2_IN*%
X145000000Y-91000000D03*
%TO.N,/LS2_OUT*%
X143000000Y-91000000D03*
%TD*%
D12*
%TO.N,GND*%
%TO.C,U1*%
X149500000Y-98500000D03*
X149500000Y-99500000D03*
X149500000Y-100500000D03*
X150500000Y-98500000D03*
X150500000Y-99500000D03*
X150500000Y-100500000D03*
X151500000Y-98500000D03*
X151500000Y-99500000D03*
X151500000Y-100500000D03*
%TD*%
D10*
%TO.N,GND*%
%TO.C,J3*%
X159000000Y-107000000D03*
D11*
%TO.N,/NTC*%
X159000000Y-105000000D03*
%TO.N,/VBAT*%
X159000000Y-103000000D03*
%TO.N,/VSYS*%
X159000000Y-101000000D03*
%TO.N,/VBUS_IN*%
X159000000Y-99000000D03*
%TO.N,/VBUS_OUT*%
X159000000Y-97000000D03*
%TO.N,/CC1*%
X159000000Y-95000000D03*
%TO.N,/CC2*%
X159000000Y-93000000D03*
%TD*%
D10*
%TO.N,/VOUT1*%
%TO.C,J1*%
X141000000Y-93000000D03*
D11*
%TO.N,/VOUT2*%
X141000000Y-95000000D03*
%TO.N,GND*%
X141000000Y-97000000D03*
%TO.N,/GPIO0*%
X141000000Y-99000000D03*
%TO.N,/GPIO1*%
X141000000Y-101000000D03*
%TO.N,/GPIO2*%
X141000000Y-103000000D03*
%TO.N,/GPIO3*%
X141000000Y-105000000D03*
%TO.N,GND*%
X141000000Y-107000000D03*
%TD*%
D10*
%TO.N,/GPIO4*%
%TO.C,J2*%
X143000000Y-109000000D03*
D11*
%TO.N,/VDDIO*%
X145000000Y-109000000D03*
%TO.N,/SDA_NPM1300*%
X147000000Y-109000000D03*
%TO.N,/SCL_NPM1300*%
X149000000Y-109000000D03*
%TO.N,/SHPLD*%
X151000000Y-109000000D03*
%TO.N,/VSET2*%
X153000000Y-109000000D03*
%TO.N,/VSET1*%
X155000000Y-109000000D03*
%TO.N,GND*%
X157000000Y-109000000D03*
%TD*%
D13*
%TO.N,GND*%
X157000000Y-104250000D03*
X146000000Y-108000000D03*
X148000000Y-108000000D03*
X157690000Y-98930000D03*
X157000000Y-107000000D03*
X157000000Y-106000000D03*
X146000000Y-92000000D03*
X144000000Y-106000000D03*
X143000000Y-106000000D03*
X156000000Y-106000000D03*
X142500000Y-96000000D03*
X156000000Y-104250000D03*
X152000000Y-108000000D03*
X157000000Y-94000000D03*
X154750000Y-103750000D03*
X157690000Y-102380000D03*
X154000000Y-92500000D03*
X150000000Y-92500000D03*
X142500000Y-94000000D03*
X144000000Y-92000000D03*
X157690000Y-100500000D03*
X157690000Y-96810000D03*
X153000000Y-96500000D03*
X156000000Y-107000000D03*
X154000000Y-107000000D03*
X152000000Y-92500000D03*
X155000000Y-95750000D03*
X147250000Y-97330000D03*
X150250000Y-104970000D03*
X148500000Y-92500000D03*
X145990000Y-102630000D03*
X150000000Y-108000000D03*
%TO.N,/VSYS*%
X154440000Y-99990000D03*
X147020000Y-99250000D03*
%TO.N,/VOUT2*%
X148670000Y-96070000D03*
X143225000Y-102150000D03*
%TO.N,/GPIO0*%
X142230000Y-99000000D03*
X146910000Y-102950000D03*
%TD*%
%TA.AperFunction,Conductor*%
%TO.N,GND*%
G36*
X142211972Y-91272174D02*
G01*
X142230024Y-91301633D01*
X142241712Y-91337608D01*
X142328475Y-91487885D01*
X142328478Y-91487890D01*
X142444592Y-91616847D01*
X142584969Y-91718838D01*
X142584976Y-91718842D01*
X142743501Y-91789422D01*
X142913236Y-91825500D01*
X142913237Y-91825500D01*
X143086763Y-91825500D01*
X143086764Y-91825500D01*
X143256499Y-91789422D01*
X143415024Y-91718842D01*
X143422819Y-91713179D01*
X143555407Y-91616847D01*
X143555406Y-91616847D01*
X143555410Y-91616845D01*
X143671522Y-91487889D01*
X143758286Y-91337611D01*
X143766936Y-91310988D01*
X143769976Y-91301633D01*
X143806758Y-91258566D01*
X143840354Y-91250500D01*
X144159646Y-91250500D01*
X144211972Y-91272174D01*
X144230024Y-91301633D01*
X144241712Y-91337608D01*
X144328475Y-91487885D01*
X144328478Y-91487890D01*
X144444592Y-91616847D01*
X144584969Y-91718838D01*
X144584976Y-91718842D01*
X144743501Y-91789422D01*
X144913236Y-91825500D01*
X144913237Y-91825500D01*
X145086763Y-91825500D01*
X145086764Y-91825500D01*
X145256499Y-91789422D01*
X145415024Y-91718842D01*
X145422819Y-91713179D01*
X145555407Y-91616847D01*
X145555406Y-91616847D01*
X145555410Y-91616845D01*
X145671522Y-91487889D01*
X145758286Y-91337611D01*
X145766936Y-91310988D01*
X145769976Y-91301633D01*
X145806758Y-91258566D01*
X145840354Y-91250500D01*
X146159646Y-91250500D01*
X146211972Y-91272174D01*
X146230024Y-91301633D01*
X146241712Y-91337608D01*
X146328475Y-91487885D01*
X146328478Y-91487890D01*
X146444592Y-91616847D01*
X146584969Y-91718838D01*
X146584976Y-91718842D01*
X146743501Y-91789422D01*
X146913236Y-91825500D01*
X146913237Y-91825500D01*
X147086763Y-91825500D01*
X147086764Y-91825500D01*
X147256499Y-91789422D01*
X147415024Y-91718842D01*
X147422819Y-91713179D01*
X147555407Y-91616847D01*
X147555406Y-91616847D01*
X147555410Y-91616845D01*
X147671522Y-91487889D01*
X147758286Y-91337611D01*
X147766936Y-91310988D01*
X147769976Y-91301633D01*
X147806758Y-91258566D01*
X147840354Y-91250500D01*
X148159646Y-91250500D01*
X148211972Y-91272174D01*
X148230024Y-91301633D01*
X148241712Y-91337608D01*
X148328475Y-91487885D01*
X148328478Y-91487890D01*
X148444592Y-91616847D01*
X148584969Y-91718838D01*
X148584976Y-91718842D01*
X148743501Y-91789422D01*
X148913236Y-91825500D01*
X148913237Y-91825500D01*
X149086763Y-91825500D01*
X149086764Y-91825500D01*
X149256499Y-91789422D01*
X149415024Y-91718842D01*
X149422819Y-91713179D01*
X149555407Y-91616847D01*
X149555406Y-91616847D01*
X149555410Y-91616845D01*
X149671522Y-91487889D01*
X149758286Y-91337611D01*
X149766936Y-91310988D01*
X149769976Y-91301633D01*
X149806758Y-91258566D01*
X149840354Y-91250500D01*
X150159646Y-91250500D01*
X150211972Y-91272174D01*
X150230024Y-91301633D01*
X150241712Y-91337608D01*
X150328475Y-91487885D01*
X150328478Y-91487890D01*
X150444592Y-91616847D01*
X150584969Y-91718838D01*
X150584976Y-91718842D01*
X150743501Y-91789422D01*
X150913236Y-91825500D01*
X150913237Y-91825500D01*
X151086763Y-91825500D01*
X151086764Y-91825500D01*
X151256499Y-91789422D01*
X151415024Y-91718842D01*
X151422819Y-91713179D01*
X151555407Y-91616847D01*
X151555406Y-91616847D01*
X151555410Y-91616845D01*
X151671522Y-91487889D01*
X151758286Y-91337611D01*
X151766936Y-91310988D01*
X151769976Y-91301633D01*
X151806758Y-91258566D01*
X151840354Y-91250500D01*
X152159646Y-91250500D01*
X152211972Y-91272174D01*
X152230024Y-91301633D01*
X152241712Y-91337608D01*
X152328475Y-91487885D01*
X152328478Y-91487890D01*
X152444592Y-91616847D01*
X152584969Y-91718838D01*
X152584976Y-91718842D01*
X152743501Y-91789422D01*
X152913236Y-91825500D01*
X152913237Y-91825500D01*
X153086763Y-91825500D01*
X153086764Y-91825500D01*
X153256499Y-91789422D01*
X153415024Y-91718842D01*
X153422819Y-91713179D01*
X153555407Y-91616847D01*
X153555406Y-91616847D01*
X153555410Y-91616845D01*
X153671522Y-91487889D01*
X153758286Y-91337611D01*
X153766936Y-91310988D01*
X153769976Y-91301633D01*
X153806758Y-91258566D01*
X153840354Y-91250500D01*
X154159646Y-91250500D01*
X154211972Y-91272174D01*
X154230024Y-91301633D01*
X154241712Y-91337608D01*
X154328475Y-91487885D01*
X154328478Y-91487890D01*
X154444592Y-91616847D01*
X154584969Y-91718838D01*
X154584976Y-91718842D01*
X154743501Y-91789422D01*
X154913236Y-91825500D01*
X154913237Y-91825500D01*
X155086763Y-91825500D01*
X155086764Y-91825500D01*
X155256499Y-91789422D01*
X155415024Y-91718842D01*
X155422819Y-91713179D01*
X155555407Y-91616847D01*
X155555406Y-91616847D01*
X155555410Y-91616845D01*
X155671522Y-91487889D01*
X155686914Y-91461230D01*
X155731847Y-91426751D01*
X155787999Y-91434143D01*
X155822478Y-91479076D01*
X155825000Y-91498229D01*
X155825000Y-91722828D01*
X155831402Y-91782375D01*
X155831403Y-91782380D01*
X155881645Y-91917087D01*
X155881646Y-91917088D01*
X155967811Y-92032188D01*
X156082911Y-92118353D01*
X156082912Y-92118354D01*
X156217619Y-92168596D01*
X156217624Y-92168597D01*
X156277171Y-92175000D01*
X156750000Y-92175000D01*
X156750000Y-91324500D01*
X156752581Y-91318267D01*
X156754394Y-91320080D01*
X156845606Y-91372741D01*
X156947339Y-91400000D01*
X157052661Y-91400000D01*
X157154394Y-91372741D01*
X157245606Y-91320080D01*
X157247418Y-91318267D01*
X157250000Y-91324500D01*
X157250000Y-92175000D01*
X157722829Y-92175000D01*
X157782375Y-92168597D01*
X157782380Y-92168596D01*
X157917087Y-92118354D01*
X157917088Y-92118353D01*
X158032188Y-92032188D01*
X158118353Y-91917088D01*
X158118354Y-91917087D01*
X158168596Y-91782380D01*
X158168597Y-91782375D01*
X158175000Y-91722828D01*
X158175000Y-91373409D01*
X158196674Y-91321083D01*
X158249000Y-91299409D01*
X158270480Y-91302595D01*
X158279846Y-91305436D01*
X158293249Y-91310988D01*
X158409972Y-91373378D01*
X158422029Y-91381434D01*
X158444653Y-91400000D01*
X158524342Y-91465399D01*
X158534600Y-91475657D01*
X158618562Y-91577965D01*
X158626621Y-91590027D01*
X158689011Y-91706750D01*
X158694563Y-91720152D01*
X158732983Y-91846805D01*
X158735813Y-91861033D01*
X158749144Y-91996385D01*
X158749500Y-92003638D01*
X158749500Y-92159850D01*
X158727826Y-92212176D01*
X158705599Y-92227452D01*
X158584978Y-92281156D01*
X158584973Y-92281159D01*
X158444592Y-92383152D01*
X158328478Y-92512109D01*
X158328475Y-92512114D01*
X158241716Y-92662384D01*
X158241711Y-92662394D01*
X158188093Y-92827418D01*
X158169953Y-93000000D01*
X158188093Y-93172581D01*
X158241711Y-93337605D01*
X158241716Y-93337615D01*
X158328475Y-93487885D01*
X158328478Y-93487890D01*
X158444592Y-93616847D01*
X158584969Y-93718838D01*
X158584971Y-93718838D01*
X158584976Y-93718842D01*
X158705600Y-93772547D01*
X158744585Y-93813628D01*
X158749500Y-93840148D01*
X158749500Y-94159850D01*
X158727826Y-94212176D01*
X158705599Y-94227452D01*
X158584978Y-94281156D01*
X158584973Y-94281159D01*
X158444592Y-94383152D01*
X158328478Y-94512109D01*
X158328475Y-94512114D01*
X158241716Y-94662384D01*
X158241711Y-94662394D01*
X158188093Y-94827418D01*
X158169953Y-95000000D01*
X158188093Y-95172581D01*
X158241711Y-95337605D01*
X158241716Y-95337615D01*
X158328475Y-95487885D01*
X158328478Y-95487890D01*
X158444592Y-95616847D01*
X158584969Y-95718838D01*
X158584971Y-95718838D01*
X158584976Y-95718842D01*
X158705600Y-95772547D01*
X158744585Y-95813628D01*
X158749500Y-95840148D01*
X158749500Y-96159850D01*
X158727826Y-96212176D01*
X158705599Y-96227452D01*
X158584978Y-96281156D01*
X158584973Y-96281159D01*
X158444592Y-96383152D01*
X158328478Y-96512109D01*
X158328475Y-96512114D01*
X158241716Y-96662384D01*
X158241711Y-96662394D01*
X158188093Y-96827418D01*
X158169953Y-97000000D01*
X158188093Y-97172581D01*
X158241711Y-97337605D01*
X158241716Y-97337615D01*
X158328475Y-97487885D01*
X158328478Y-97487890D01*
X158444592Y-97616847D01*
X158584969Y-97718838D01*
X158584971Y-97718838D01*
X158584976Y-97718842D01*
X158705600Y-97772547D01*
X158744585Y-97813628D01*
X158749500Y-97840148D01*
X158749500Y-98159850D01*
X158727826Y-98212176D01*
X158705599Y-98227452D01*
X158584978Y-98281156D01*
X158584973Y-98281159D01*
X158444592Y-98383152D01*
X158328478Y-98512109D01*
X158328475Y-98512114D01*
X158241716Y-98662384D01*
X158241711Y-98662394D01*
X158188093Y-98827418D01*
X158188092Y-98827422D01*
X158188092Y-98827424D01*
X158169953Y-99000000D01*
X158187783Y-99169640D01*
X158188093Y-99172581D01*
X158241711Y-99337605D01*
X158241716Y-99337615D01*
X158328475Y-99487885D01*
X158328478Y-99487890D01*
X158444592Y-99616847D01*
X158584969Y-99718838D01*
X158584971Y-99718838D01*
X158584976Y-99718842D01*
X158705600Y-99772547D01*
X158744585Y-99813628D01*
X158749500Y-99840148D01*
X158749500Y-100159850D01*
X158727826Y-100212176D01*
X158705599Y-100227452D01*
X158584978Y-100281156D01*
X158584973Y-100281159D01*
X158444592Y-100383152D01*
X158328478Y-100512109D01*
X158328475Y-100512114D01*
X158241716Y-100662384D01*
X158241711Y-100662394D01*
X158188093Y-100827418D01*
X158169953Y-101000000D01*
X158188093Y-101172581D01*
X158241711Y-101337605D01*
X158241716Y-101337615D01*
X158328475Y-101487885D01*
X158328478Y-101487890D01*
X158444592Y-101616847D01*
X158584969Y-101718838D01*
X158584971Y-101718838D01*
X158584976Y-101718842D01*
X158705600Y-101772547D01*
X158744585Y-101813628D01*
X158749500Y-101840148D01*
X158749500Y-102159850D01*
X158727826Y-102212176D01*
X158705599Y-102227452D01*
X158584978Y-102281156D01*
X158584973Y-102281159D01*
X158444592Y-102383152D01*
X158328478Y-102512109D01*
X158328475Y-102512114D01*
X158241716Y-102662384D01*
X158241711Y-102662394D01*
X158188093Y-102827418D01*
X158169953Y-103000000D01*
X158188093Y-103172581D01*
X158241711Y-103337605D01*
X158241716Y-103337615D01*
X158328475Y-103487885D01*
X158328478Y-103487890D01*
X158444592Y-103616847D01*
X158584969Y-103718838D01*
X158584971Y-103718838D01*
X158584976Y-103718842D01*
X158705600Y-103772547D01*
X158744585Y-103813628D01*
X158749500Y-103840148D01*
X158749500Y-104159850D01*
X158727826Y-104212176D01*
X158705599Y-104227452D01*
X158584978Y-104281156D01*
X158584973Y-104281159D01*
X158444592Y-104383152D01*
X158328478Y-104512109D01*
X158328475Y-104512114D01*
X158241716Y-104662384D01*
X158241711Y-104662394D01*
X158188093Y-104827418D01*
X158169953Y-105000000D01*
X158188093Y-105172581D01*
X158241711Y-105337605D01*
X158241716Y-105337615D01*
X158328475Y-105487885D01*
X158328478Y-105487890D01*
X158444592Y-105616847D01*
X158546837Y-105691133D01*
X158576430Y-105739424D01*
X158563208Y-105794496D01*
X158514917Y-105824089D01*
X158503341Y-105825000D01*
X158277171Y-105825000D01*
X158217624Y-105831402D01*
X158217619Y-105831403D01*
X158082912Y-105881645D01*
X158082911Y-105881646D01*
X157967811Y-105967811D01*
X157881646Y-106082911D01*
X157881645Y-106082912D01*
X157831403Y-106217619D01*
X157831402Y-106217624D01*
X157825000Y-106277171D01*
X157825000Y-106750000D01*
X158675500Y-106750000D01*
X158681732Y-106752581D01*
X158679920Y-106754394D01*
X158627259Y-106845606D01*
X158600000Y-106947339D01*
X158600000Y-107052661D01*
X158627259Y-107154394D01*
X158679920Y-107245606D01*
X158681732Y-107247418D01*
X158675500Y-107250000D01*
X157825000Y-107250000D01*
X157825000Y-107722828D01*
X157831402Y-107782375D01*
X157831403Y-107782380D01*
X157881645Y-107917087D01*
X157881646Y-107917088D01*
X157967811Y-108032188D01*
X158082911Y-108118353D01*
X158082912Y-108118354D01*
X158217619Y-108168596D01*
X158217624Y-108168597D01*
X158277171Y-108175000D01*
X158626591Y-108175000D01*
X158678917Y-108196674D01*
X158700591Y-108249000D01*
X158697403Y-108270487D01*
X158694561Y-108279853D01*
X158689011Y-108293249D01*
X158626621Y-108409972D01*
X158618562Y-108422034D01*
X158534600Y-108524342D01*
X158524342Y-108534600D01*
X158422034Y-108618562D01*
X158409972Y-108626621D01*
X158293249Y-108689011D01*
X158279846Y-108694563D01*
X158218310Y-108713229D01*
X158161946Y-108707677D01*
X158126016Y-108663895D01*
X158125655Y-108662665D01*
X158100351Y-108573730D01*
X158100348Y-108573723D01*
X158003284Y-108378790D01*
X158003282Y-108378787D01*
X157872057Y-108205016D01*
X157872056Y-108205015D01*
X157711129Y-108058313D01*
X157525990Y-107943680D01*
X157525980Y-107943675D01*
X157322934Y-107865013D01*
X157250000Y-107851379D01*
X157250000Y-108675500D01*
X157247418Y-108681732D01*
X157245606Y-108679920D01*
X157154394Y-108627259D01*
X157052661Y-108600000D01*
X156947339Y-108600000D01*
X156845606Y-108627259D01*
X156754394Y-108679920D01*
X156752581Y-108681732D01*
X156750000Y-108675500D01*
X156750000Y-107851379D01*
X156749999Y-107851379D01*
X156677065Y-107865013D01*
X156474019Y-107943675D01*
X156474009Y-107943680D01*
X156288870Y-108058313D01*
X156288869Y-108058313D01*
X156127943Y-108205015D01*
X156127942Y-108205016D01*
X155996717Y-108378787D01*
X155996715Y-108378790D01*
X155899651Y-108573723D01*
X155899650Y-108573725D01*
X155883928Y-108628981D01*
X155848761Y-108673377D01*
X155792501Y-108679904D01*
X155748667Y-108645729D01*
X155738997Y-108628981D01*
X155671522Y-108512111D01*
X155671521Y-108512109D01*
X155555407Y-108383152D01*
X155415030Y-108281161D01*
X155415023Y-108281157D01*
X155256500Y-108210578D01*
X155256498Y-108210577D01*
X155122841Y-108182168D01*
X155086764Y-108174500D01*
X154913236Y-108174500D01*
X154883483Y-108180824D01*
X154743501Y-108210577D01*
X154743499Y-108210578D01*
X154584978Y-108281156D01*
X154584973Y-108281159D01*
X154444592Y-108383152D01*
X154328478Y-108512109D01*
X154328475Y-108512114D01*
X154241712Y-108662391D01*
X154230024Y-108698367D01*
X154193242Y-108741434D01*
X154159646Y-108749500D01*
X153840354Y-108749500D01*
X153788028Y-108727826D01*
X153769976Y-108698367D01*
X153758287Y-108662391D01*
X153671524Y-108512114D01*
X153671521Y-108512109D01*
X153555407Y-108383152D01*
X153415030Y-108281161D01*
X153415023Y-108281157D01*
X153256500Y-108210578D01*
X153256498Y-108210577D01*
X153122841Y-108182168D01*
X153086764Y-108174500D01*
X152913236Y-108174500D01*
X152883483Y-108180824D01*
X152743501Y-108210577D01*
X152743499Y-108210578D01*
X152584978Y-108281156D01*
X152584973Y-108281159D01*
X152444592Y-108383152D01*
X152328478Y-108512109D01*
X152328475Y-108512114D01*
X152241712Y-108662391D01*
X152230024Y-108698367D01*
X152193242Y-108741434D01*
X152159646Y-108749500D01*
X151840354Y-108749500D01*
X151788028Y-108727826D01*
X151769976Y-108698367D01*
X151758287Y-108662391D01*
X151671524Y-108512114D01*
X151671521Y-108512109D01*
X151555407Y-108383152D01*
X151415030Y-108281161D01*
X151415023Y-108281157D01*
X151256500Y-108210578D01*
X151256498Y-108210577D01*
X151122841Y-108182168D01*
X151086764Y-108174500D01*
X150913236Y-108174500D01*
X150883483Y-108180824D01*
X150743501Y-108210577D01*
X150743499Y-108210578D01*
X150584978Y-108281156D01*
X150584973Y-108281159D01*
X150444592Y-108383152D01*
X150328478Y-108512109D01*
X150328475Y-108512114D01*
X150241712Y-108662391D01*
X150230024Y-108698367D01*
X150193242Y-108741434D01*
X150159646Y-108749500D01*
X149840354Y-108749500D01*
X149788028Y-108727826D01*
X149769976Y-108698367D01*
X149758287Y-108662391D01*
X149671524Y-108512114D01*
X149671521Y-108512109D01*
X149555407Y-108383152D01*
X149415030Y-108281161D01*
X149415023Y-108281157D01*
X149256500Y-108210578D01*
X149256498Y-108210577D01*
X149122841Y-108182168D01*
X149086764Y-108174500D01*
X148913236Y-108174500D01*
X148883483Y-108180824D01*
X148743501Y-108210577D01*
X148743499Y-108210578D01*
X148584978Y-108281156D01*
X148584973Y-108281159D01*
X148444592Y-108383152D01*
X148328478Y-108512109D01*
X148328475Y-108512114D01*
X148241712Y-108662391D01*
X148230024Y-108698367D01*
X148193242Y-108741434D01*
X148159646Y-108749500D01*
X147840354Y-108749500D01*
X147788028Y-108727826D01*
X147769976Y-108698367D01*
X147758287Y-108662391D01*
X147671524Y-108512114D01*
X147671521Y-108512109D01*
X147555407Y-108383152D01*
X147415030Y-108281161D01*
X147415023Y-108281157D01*
X147256500Y-108210578D01*
X147256498Y-108210577D01*
X147122841Y-108182168D01*
X147086764Y-108174500D01*
X146913236Y-108174500D01*
X146883483Y-108180824D01*
X146743501Y-108210577D01*
X146743499Y-108210578D01*
X146584978Y-108281156D01*
X146584973Y-108281159D01*
X146444592Y-108383152D01*
X146328478Y-108512109D01*
X146328475Y-108512114D01*
X146241712Y-108662391D01*
X146230024Y-108698367D01*
X146193242Y-108741434D01*
X146159646Y-108749500D01*
X145840354Y-108749500D01*
X145788028Y-108727826D01*
X145769976Y-108698367D01*
X145758287Y-108662391D01*
X145671524Y-108512114D01*
X145671521Y-108512109D01*
X145555407Y-108383152D01*
X145415030Y-108281161D01*
X145415023Y-108281157D01*
X145256500Y-108210578D01*
X145256498Y-108210577D01*
X145122841Y-108182168D01*
X145086764Y-108174500D01*
X144913236Y-108174500D01*
X144883483Y-108180824D01*
X144743501Y-108210577D01*
X144743499Y-108210578D01*
X144584978Y-108281156D01*
X144584973Y-108281159D01*
X144444592Y-108383152D01*
X144328478Y-108512109D01*
X144328475Y-108512114D01*
X144241712Y-108662391D01*
X144230024Y-108698367D01*
X144193242Y-108741434D01*
X144159646Y-108749500D01*
X143899500Y-108749500D01*
X143847174Y-108727826D01*
X143825500Y-108675500D01*
X143825500Y-108310180D01*
X143820853Y-108286821D01*
X143816767Y-108266278D01*
X143783504Y-108216496D01*
X143766321Y-108205015D01*
X143733722Y-108183233D01*
X143689820Y-108174500D01*
X142310180Y-108174500D01*
X142288229Y-108178866D01*
X142266277Y-108183233D01*
X142216496Y-108216495D01*
X142216495Y-108216496D01*
X142183233Y-108266277D01*
X142174500Y-108310180D01*
X142174500Y-108675500D01*
X142152826Y-108727826D01*
X142100500Y-108749500D01*
X142003638Y-108749500D01*
X141996385Y-108749144D01*
X141861033Y-108735813D01*
X141846805Y-108732983D01*
X141720152Y-108694563D01*
X141706750Y-108689011D01*
X141590027Y-108626621D01*
X141577968Y-108618564D01*
X141523331Y-108573725D01*
X141475657Y-108534600D01*
X141465399Y-108524342D01*
X141429029Y-108480025D01*
X141381434Y-108422029D01*
X141373378Y-108409972D01*
X141310988Y-108293249D01*
X141305436Y-108279847D01*
X141287880Y-108221972D01*
X141293432Y-108165607D01*
X141331962Y-108131488D01*
X141525980Y-108056324D01*
X141525990Y-108056319D01*
X141711129Y-107941686D01*
X141711130Y-107941686D01*
X141872056Y-107794984D01*
X141872057Y-107794983D01*
X142003282Y-107621212D01*
X142003284Y-107621209D01*
X142100348Y-107426276D01*
X142100350Y-107426271D01*
X142150505Y-107250000D01*
X141324500Y-107250000D01*
X141318267Y-107247418D01*
X141320080Y-107245606D01*
X141372741Y-107154394D01*
X141400000Y-107052661D01*
X141400000Y-106947339D01*
X141372741Y-106845606D01*
X141320080Y-106754394D01*
X141318267Y-106752581D01*
X141324500Y-106750000D01*
X142150505Y-106750000D01*
X142100350Y-106573728D01*
X142100348Y-106573723D01*
X142003284Y-106378790D01*
X142003282Y-106378787D01*
X141872057Y-106205016D01*
X141872056Y-106205015D01*
X141711129Y-106058313D01*
X141525990Y-105943680D01*
X141525980Y-105943675D01*
X141362487Y-105880336D01*
X141321524Y-105841223D01*
X141320216Y-105784601D01*
X141359118Y-105743732D01*
X141415024Y-105718842D01*
X141555410Y-105616845D01*
X141671522Y-105487889D01*
X141758286Y-105337611D01*
X141811908Y-105172576D01*
X141830047Y-105000000D01*
X141811908Y-104827424D01*
X141758286Y-104662389D01*
X141671522Y-104512111D01*
X141671521Y-104512109D01*
X141555407Y-104383152D01*
X141415030Y-104281161D01*
X141415022Y-104281157D01*
X141294401Y-104227452D01*
X141255415Y-104186369D01*
X141250500Y-104159850D01*
X141250500Y-103840148D01*
X141272174Y-103787822D01*
X141294395Y-103772549D01*
X141415024Y-103718842D01*
X141555410Y-103616845D01*
X141671522Y-103487889D01*
X141758286Y-103337611D01*
X141811908Y-103172576D01*
X141830047Y-103000000D01*
X141824792Y-102950000D01*
X146454867Y-102950000D01*
X146473302Y-103078223D01*
X146473302Y-103078224D01*
X146473303Y-103078226D01*
X146527118Y-103196063D01*
X146611951Y-103293967D01*
X146720931Y-103364004D01*
X146845228Y-103400500D01*
X146974772Y-103400500D01*
X147099069Y-103364004D01*
X147208049Y-103293967D01*
X147292882Y-103196063D01*
X147346697Y-103078226D01*
X147365133Y-102950000D01*
X147346697Y-102821774D01*
X147292882Y-102703937D01*
X147208049Y-102606033D01*
X147141032Y-102562964D01*
X147099068Y-102535995D01*
X146974772Y-102499500D01*
X146845228Y-102499500D01*
X146720931Y-102535995D01*
X146611954Y-102606031D01*
X146611950Y-102606034D01*
X146527119Y-102703935D01*
X146473302Y-102821776D01*
X146454867Y-102950000D01*
X141824792Y-102950000D01*
X141811908Y-102827424D01*
X141805546Y-102807844D01*
X141758288Y-102662394D01*
X141758283Y-102662384D01*
X141671524Y-102512114D01*
X141671521Y-102512109D01*
X141555407Y-102383152D01*
X141415030Y-102281161D01*
X141415022Y-102281157D01*
X141294401Y-102227452D01*
X141255415Y-102186369D01*
X141250500Y-102159850D01*
X141250500Y-102150000D01*
X142769867Y-102150000D01*
X142788302Y-102278223D01*
X142788302Y-102278224D01*
X142788303Y-102278226D01*
X142842118Y-102396063D01*
X142926951Y-102493967D01*
X143035931Y-102564004D01*
X143160228Y-102600500D01*
X143289772Y-102600500D01*
X143414069Y-102564004D01*
X143523049Y-102493967D01*
X143607882Y-102396063D01*
X143661697Y-102278226D01*
X143680133Y-102150000D01*
X143661697Y-102021774D01*
X143607882Y-101903937D01*
X143523049Y-101806033D01*
X143456032Y-101762964D01*
X143414068Y-101735995D01*
X143289772Y-101699500D01*
X143160228Y-101699500D01*
X143035931Y-101735995D01*
X142926954Y-101806031D01*
X142926950Y-101806034D01*
X142842119Y-101903935D01*
X142788302Y-102021776D01*
X142769867Y-102150000D01*
X141250500Y-102150000D01*
X141250500Y-101840148D01*
X141272174Y-101787822D01*
X141294395Y-101772549D01*
X141415024Y-101718842D01*
X141555410Y-101616845D01*
X141671522Y-101487889D01*
X141758286Y-101337611D01*
X141809409Y-101180266D01*
X149173285Y-101180266D01*
X149173285Y-101180267D01*
X149332045Y-101235820D01*
X149332052Y-101235822D01*
X149500000Y-101254745D01*
X149667947Y-101235822D01*
X149667954Y-101235820D01*
X149826713Y-101180267D01*
X149826712Y-101180266D01*
X150173285Y-101180266D01*
X150173285Y-101180267D01*
X150332045Y-101235820D01*
X150332052Y-101235822D01*
X150500000Y-101254745D01*
X150667947Y-101235822D01*
X150667954Y-101235820D01*
X150826713Y-101180267D01*
X150826712Y-101180266D01*
X151173285Y-101180266D01*
X151173285Y-101180267D01*
X151332045Y-101235820D01*
X151332052Y-101235822D01*
X151500000Y-101254745D01*
X151667947Y-101235822D01*
X151667954Y-101235820D01*
X151826713Y-101180267D01*
X151500000Y-100853553D01*
X151173285Y-101180266D01*
X150826712Y-101180266D01*
X150500000Y-100853553D01*
X150173285Y-101180266D01*
X149826712Y-101180266D01*
X149500000Y-100853553D01*
X149173285Y-101180266D01*
X141809409Y-101180266D01*
X141811908Y-101172576D01*
X141830047Y-101000000D01*
X141811908Y-100827424D01*
X141805546Y-100807844D01*
X141758288Y-100662394D01*
X141758283Y-100662384D01*
X141671524Y-100512114D01*
X141671521Y-100512109D01*
X141660618Y-100500000D01*
X148745254Y-100500000D01*
X148764177Y-100667947D01*
X148764179Y-100667955D01*
X148819731Y-100826713D01*
X149146446Y-100499999D01*
X149126556Y-100480109D01*
X149400000Y-100480109D01*
X149400000Y-100519891D01*
X149415224Y-100556645D01*
X149443355Y-100584776D01*
X149480109Y-100600000D01*
X149519891Y-100600000D01*
X149556645Y-100584776D01*
X149584776Y-100556645D01*
X149600000Y-100519891D01*
X149600000Y-100500000D01*
X149853553Y-100500000D01*
X150000000Y-100646447D01*
X150146447Y-100500000D01*
X150126556Y-100480109D01*
X150400000Y-100480109D01*
X150400000Y-100519891D01*
X150415224Y-100556645D01*
X150443355Y-100584776D01*
X150480109Y-100600000D01*
X150519891Y-100600000D01*
X150556645Y-100584776D01*
X150584776Y-100556645D01*
X150600000Y-100519891D01*
X150600000Y-100500000D01*
X150853553Y-100500000D01*
X151000000Y-100646447D01*
X151146447Y-100500000D01*
X151126556Y-100480109D01*
X151400000Y-100480109D01*
X151400000Y-100519891D01*
X151415224Y-100556645D01*
X151443355Y-100584776D01*
X151480109Y-100600000D01*
X151519891Y-100600000D01*
X151556645Y-100584776D01*
X151584776Y-100556645D01*
X151600000Y-100519891D01*
X151600000Y-100499999D01*
X151853552Y-100499999D01*
X152180267Y-100826713D01*
X152235820Y-100667954D01*
X152235822Y-100667947D01*
X152254745Y-100500000D01*
X152235822Y-100332052D01*
X152235820Y-100332045D01*
X152180267Y-100173285D01*
X152180266Y-100173285D01*
X151853552Y-100499999D01*
X151600000Y-100499999D01*
X151600000Y-100480109D01*
X151584776Y-100443355D01*
X151556645Y-100415224D01*
X151519891Y-100400000D01*
X151480109Y-100400000D01*
X151443355Y-100415224D01*
X151415224Y-100443355D01*
X151400000Y-100480109D01*
X151126556Y-100480109D01*
X151000000Y-100353553D01*
X150853553Y-100500000D01*
X150600000Y-100500000D01*
X150600000Y-100480109D01*
X150584776Y-100443355D01*
X150556645Y-100415224D01*
X150519891Y-100400000D01*
X150480109Y-100400000D01*
X150443355Y-100415224D01*
X150415224Y-100443355D01*
X150400000Y-100480109D01*
X150126556Y-100480109D01*
X150000000Y-100353553D01*
X149853553Y-100500000D01*
X149600000Y-100500000D01*
X149600000Y-100480109D01*
X149584776Y-100443355D01*
X149556645Y-100415224D01*
X149519891Y-100400000D01*
X149480109Y-100400000D01*
X149443355Y-100415224D01*
X149415224Y-100443355D01*
X149400000Y-100480109D01*
X149126556Y-100480109D01*
X148819731Y-100173285D01*
X148819730Y-100173285D01*
X148764180Y-100332041D01*
X148764177Y-100332052D01*
X148745254Y-100500000D01*
X141660618Y-100500000D01*
X141555407Y-100383152D01*
X141415030Y-100281161D01*
X141415022Y-100281157D01*
X141294401Y-100227452D01*
X141255415Y-100186369D01*
X141250500Y-100159850D01*
X141250500Y-100000000D01*
X149353553Y-100000000D01*
X149500000Y-100146447D01*
X149646447Y-100000000D01*
X150353553Y-100000000D01*
X150500000Y-100146447D01*
X150646447Y-100000000D01*
X151353553Y-100000000D01*
X151500000Y-100146447D01*
X151646447Y-100000000D01*
X151636447Y-99990000D01*
X153984867Y-99990000D01*
X154003302Y-100118223D01*
X154003302Y-100118224D01*
X154003303Y-100118226D01*
X154057118Y-100236063D01*
X154141951Y-100333967D01*
X154250931Y-100404004D01*
X154375228Y-100440500D01*
X154504772Y-100440500D01*
X154629069Y-100404004D01*
X154738049Y-100333967D01*
X154822882Y-100236063D01*
X154876697Y-100118226D01*
X154895133Y-99990000D01*
X154876697Y-99861774D01*
X154822882Y-99743937D01*
X154738049Y-99646033D01*
X154657034Y-99593968D01*
X154629068Y-99575995D01*
X154504772Y-99539500D01*
X154375228Y-99539500D01*
X154250931Y-99575995D01*
X154141954Y-99646031D01*
X154141950Y-99646034D01*
X154057119Y-99743935D01*
X154003302Y-99861776D01*
X153984867Y-99990000D01*
X151636447Y-99990000D01*
X151500000Y-99853553D01*
X151353553Y-100000000D01*
X150646447Y-100000000D01*
X150500000Y-99853553D01*
X150353553Y-100000000D01*
X149646447Y-100000000D01*
X149500000Y-99853553D01*
X149353553Y-100000000D01*
X141250500Y-100000000D01*
X141250500Y-99840148D01*
X141272174Y-99787822D01*
X141294395Y-99772549D01*
X141415024Y-99718842D01*
X141440270Y-99700500D01*
X141555407Y-99616847D01*
X141555406Y-99616847D01*
X141555410Y-99616845D01*
X141671522Y-99487889D01*
X141758286Y-99337611D01*
X141763651Y-99321095D01*
X141800432Y-99278028D01*
X141856894Y-99273582D01*
X141889955Y-99295500D01*
X141931951Y-99343967D01*
X142040931Y-99414004D01*
X142165228Y-99450500D01*
X142294772Y-99450500D01*
X142419069Y-99414004D01*
X142528049Y-99343967D01*
X142609471Y-99250000D01*
X146564867Y-99250000D01*
X146583302Y-99378223D01*
X146583302Y-99378224D01*
X146583303Y-99378226D01*
X146637118Y-99496063D01*
X146721951Y-99593967D01*
X146830931Y-99664004D01*
X146955228Y-99700500D01*
X147084772Y-99700500D01*
X147209069Y-99664004D01*
X147318049Y-99593967D01*
X147399471Y-99500000D01*
X148745254Y-99500000D01*
X148764177Y-99667947D01*
X148764179Y-99667955D01*
X148819731Y-99826713D01*
X149146446Y-99499999D01*
X149126556Y-99480109D01*
X149400000Y-99480109D01*
X149400000Y-99519891D01*
X149415224Y-99556645D01*
X149443355Y-99584776D01*
X149480109Y-99600000D01*
X149519891Y-99600000D01*
X149556645Y-99584776D01*
X149584776Y-99556645D01*
X149600000Y-99519891D01*
X149600000Y-99500000D01*
X149853553Y-99500000D01*
X150000000Y-99646447D01*
X150146447Y-99500000D01*
X150126556Y-99480109D01*
X150400000Y-99480109D01*
X150400000Y-99519891D01*
X150415224Y-99556645D01*
X150443355Y-99584776D01*
X150480109Y-99600000D01*
X150519891Y-99600000D01*
X150556645Y-99584776D01*
X150584776Y-99556645D01*
X150600000Y-99519891D01*
X150600000Y-99500000D01*
X150853553Y-99500000D01*
X151000000Y-99646447D01*
X151146447Y-99500000D01*
X151126556Y-99480109D01*
X151400000Y-99480109D01*
X151400000Y-99519891D01*
X151415224Y-99556645D01*
X151443355Y-99584776D01*
X151480109Y-99600000D01*
X151519891Y-99600000D01*
X151556645Y-99584776D01*
X151584776Y-99556645D01*
X151600000Y-99519891D01*
X151600000Y-99499999D01*
X151853553Y-99499999D01*
X152180267Y-99826713D01*
X152235820Y-99667954D01*
X152235822Y-99667947D01*
X152254745Y-99500000D01*
X152235822Y-99332052D01*
X152235820Y-99332045D01*
X152180267Y-99173285D01*
X152180266Y-99173285D01*
X151853553Y-99499999D01*
X151600000Y-99499999D01*
X151600000Y-99480109D01*
X151584776Y-99443355D01*
X151556645Y-99415224D01*
X151519891Y-99400000D01*
X151480109Y-99400000D01*
X151443355Y-99415224D01*
X151415224Y-99443355D01*
X151400000Y-99480109D01*
X151126556Y-99480109D01*
X151000000Y-99353553D01*
X150853553Y-99500000D01*
X150600000Y-99500000D01*
X150600000Y-99480109D01*
X150584776Y-99443355D01*
X150556645Y-99415224D01*
X150519891Y-99400000D01*
X150480109Y-99400000D01*
X150443355Y-99415224D01*
X150415224Y-99443355D01*
X150400000Y-99480109D01*
X150126556Y-99480109D01*
X150000000Y-99353553D01*
X149853553Y-99500000D01*
X149600000Y-99500000D01*
X149600000Y-99480109D01*
X149584776Y-99443355D01*
X149556645Y-99415224D01*
X149519891Y-99400000D01*
X149480109Y-99400000D01*
X149443355Y-99415224D01*
X149415224Y-99443355D01*
X149400000Y-99480109D01*
X149126556Y-99480109D01*
X148819731Y-99173285D01*
X148819730Y-99173285D01*
X148764180Y-99332041D01*
X148764177Y-99332052D01*
X148745254Y-99500000D01*
X147399471Y-99500000D01*
X147402882Y-99496063D01*
X147456697Y-99378226D01*
X147475133Y-99250000D01*
X147456697Y-99121774D01*
X147402882Y-99003937D01*
X147399471Y-99000000D01*
X149353553Y-99000000D01*
X149500000Y-99146447D01*
X149646447Y-99000000D01*
X150353553Y-99000000D01*
X150500000Y-99146447D01*
X150646447Y-99000000D01*
X151353553Y-99000000D01*
X151500000Y-99146447D01*
X151646447Y-99000000D01*
X151500000Y-98853553D01*
X151353553Y-99000000D01*
X150646447Y-99000000D01*
X150500000Y-98853553D01*
X150353553Y-99000000D01*
X149646447Y-99000000D01*
X149500000Y-98853553D01*
X149353553Y-99000000D01*
X147399471Y-99000000D01*
X147318049Y-98906033D01*
X147236388Y-98853553D01*
X147209068Y-98835995D01*
X147084772Y-98799500D01*
X146955228Y-98799500D01*
X146830931Y-98835995D01*
X146721954Y-98906031D01*
X146721950Y-98906034D01*
X146637119Y-99003935D01*
X146583302Y-99121776D01*
X146564867Y-99250000D01*
X142609471Y-99250000D01*
X142612882Y-99246063D01*
X142666697Y-99128226D01*
X142685133Y-99000000D01*
X142666697Y-98871774D01*
X142612882Y-98753937D01*
X142528049Y-98656033D01*
X142440860Y-98600000D01*
X142419068Y-98585995D01*
X142294772Y-98549500D01*
X142165228Y-98549500D01*
X142040931Y-98585995D01*
X141931954Y-98656031D01*
X141931946Y-98656037D01*
X141889955Y-98704498D01*
X141839309Y-98729849D01*
X141785570Y-98711963D01*
X141763652Y-98678904D01*
X141758286Y-98662389D01*
X141671522Y-98512111D01*
X141671521Y-98512109D01*
X141660618Y-98500000D01*
X148745254Y-98500000D01*
X148764177Y-98667947D01*
X148764179Y-98667955D01*
X148819731Y-98826713D01*
X149146446Y-98499999D01*
X149126556Y-98480109D01*
X149400000Y-98480109D01*
X149400000Y-98519891D01*
X149415224Y-98556645D01*
X149443355Y-98584776D01*
X149480109Y-98600000D01*
X149519891Y-98600000D01*
X149556645Y-98584776D01*
X149584776Y-98556645D01*
X149600000Y-98519891D01*
X149600000Y-98500000D01*
X149853553Y-98500000D01*
X150000000Y-98646447D01*
X150146447Y-98500000D01*
X150126556Y-98480109D01*
X150400000Y-98480109D01*
X150400000Y-98519891D01*
X150415224Y-98556645D01*
X150443355Y-98584776D01*
X150480109Y-98600000D01*
X150519891Y-98600000D01*
X150556645Y-98584776D01*
X150584776Y-98556645D01*
X150600000Y-98519891D01*
X150600000Y-98500000D01*
X150853553Y-98500000D01*
X151000000Y-98646447D01*
X151146447Y-98500000D01*
X151126556Y-98480109D01*
X151400000Y-98480109D01*
X151400000Y-98519891D01*
X151415224Y-98556645D01*
X151443355Y-98584776D01*
X151480109Y-98600000D01*
X151519891Y-98600000D01*
X151556645Y-98584776D01*
X151584776Y-98556645D01*
X151600000Y-98519891D01*
X151600000Y-98499999D01*
X151853552Y-98499999D01*
X152180267Y-98826713D01*
X152235820Y-98667954D01*
X152235822Y-98667947D01*
X152254745Y-98500000D01*
X152235822Y-98332052D01*
X152235820Y-98332045D01*
X152180267Y-98173285D01*
X152180266Y-98173285D01*
X151853552Y-98499999D01*
X151600000Y-98499999D01*
X151600000Y-98480109D01*
X151584776Y-98443355D01*
X151556645Y-98415224D01*
X151519891Y-98400000D01*
X151480109Y-98400000D01*
X151443355Y-98415224D01*
X151415224Y-98443355D01*
X151400000Y-98480109D01*
X151126556Y-98480109D01*
X151000000Y-98353553D01*
X150853553Y-98500000D01*
X150600000Y-98500000D01*
X150600000Y-98480109D01*
X150584776Y-98443355D01*
X150556645Y-98415224D01*
X150519891Y-98400000D01*
X150480109Y-98400000D01*
X150443355Y-98415224D01*
X150415224Y-98443355D01*
X150400000Y-98480109D01*
X150126556Y-98480109D01*
X150000000Y-98353553D01*
X149853553Y-98500000D01*
X149600000Y-98500000D01*
X149600000Y-98480109D01*
X149584776Y-98443355D01*
X149556645Y-98415224D01*
X149519891Y-98400000D01*
X149480109Y-98400000D01*
X149443355Y-98415224D01*
X149415224Y-98443355D01*
X149400000Y-98480109D01*
X149126556Y-98480109D01*
X148819731Y-98173285D01*
X148819730Y-98173285D01*
X148764180Y-98332041D01*
X148764177Y-98332052D01*
X148745254Y-98500000D01*
X141660618Y-98500000D01*
X141555407Y-98383152D01*
X141415030Y-98281161D01*
X141415019Y-98281155D01*
X141359121Y-98256268D01*
X141320134Y-98215185D01*
X141321617Y-98158568D01*
X141362487Y-98119663D01*
X141525980Y-98056324D01*
X141525990Y-98056319D01*
X141711129Y-97941686D01*
X141711130Y-97941686D01*
X141844911Y-97819730D01*
X149173285Y-97819730D01*
X149173285Y-97819731D01*
X149499999Y-98146446D01*
X149826713Y-97819731D01*
X149826710Y-97819730D01*
X150173285Y-97819730D01*
X150173285Y-97819731D01*
X150499999Y-98146446D01*
X150826713Y-97819731D01*
X150826710Y-97819730D01*
X151173285Y-97819730D01*
X151173285Y-97819731D01*
X151499999Y-98146446D01*
X151826713Y-97819731D01*
X151667955Y-97764179D01*
X151667947Y-97764177D01*
X151500000Y-97745254D01*
X151332052Y-97764177D01*
X151332041Y-97764180D01*
X151173285Y-97819730D01*
X150826710Y-97819730D01*
X150667955Y-97764179D01*
X150667947Y-97764177D01*
X150500000Y-97745254D01*
X150332052Y-97764177D01*
X150332041Y-97764180D01*
X150173285Y-97819730D01*
X149826710Y-97819730D01*
X149667955Y-97764179D01*
X149667947Y-97764177D01*
X149500000Y-97745254D01*
X149332052Y-97764177D01*
X149332041Y-97764180D01*
X149173285Y-97819730D01*
X141844911Y-97819730D01*
X141872056Y-97794984D01*
X141872057Y-97794983D01*
X142003282Y-97621212D01*
X142003284Y-97621209D01*
X142100348Y-97426276D01*
X142100350Y-97426271D01*
X142150505Y-97250000D01*
X141324500Y-97250000D01*
X141318267Y-97247418D01*
X141320080Y-97245606D01*
X141372741Y-97154394D01*
X141400000Y-97052661D01*
X141400000Y-96947339D01*
X141372741Y-96845606D01*
X141320080Y-96754394D01*
X141318267Y-96752581D01*
X141324500Y-96750000D01*
X142150505Y-96750000D01*
X142100350Y-96573728D01*
X142100348Y-96573723D01*
X142003284Y-96378790D01*
X142003282Y-96378787D01*
X141872057Y-96205016D01*
X141872056Y-96205015D01*
X141723949Y-96070000D01*
X148214867Y-96070000D01*
X148233302Y-96198223D01*
X148233302Y-96198224D01*
X148233303Y-96198226D01*
X148287118Y-96316063D01*
X148371951Y-96413967D01*
X148480931Y-96484004D01*
X148605228Y-96520500D01*
X148734772Y-96520500D01*
X148859069Y-96484004D01*
X148968049Y-96413967D01*
X149052882Y-96316063D01*
X149106697Y-96198226D01*
X149125133Y-96070000D01*
X149106697Y-95941774D01*
X149052882Y-95823937D01*
X148968049Y-95726033D01*
X148901032Y-95682964D01*
X148859068Y-95655995D01*
X148734772Y-95619500D01*
X148605228Y-95619500D01*
X148480931Y-95655995D01*
X148371954Y-95726031D01*
X148371950Y-95726034D01*
X148287119Y-95823935D01*
X148233302Y-95941776D01*
X148214867Y-96070000D01*
X141723949Y-96070000D01*
X141711129Y-96058313D01*
X141525990Y-95943680D01*
X141525980Y-95943675D01*
X141362487Y-95880336D01*
X141321524Y-95841223D01*
X141320216Y-95784601D01*
X141359118Y-95743732D01*
X141415024Y-95718842D01*
X141555410Y-95616845D01*
X141671522Y-95487889D01*
X141758286Y-95337611D01*
X141811908Y-95172576D01*
X141830047Y-95000000D01*
X141811908Y-94827424D01*
X141758286Y-94662389D01*
X141671522Y-94512111D01*
X141671521Y-94512109D01*
X141555407Y-94383152D01*
X141415030Y-94281161D01*
X141415022Y-94281157D01*
X141294401Y-94227452D01*
X141255415Y-94186369D01*
X141250500Y-94159850D01*
X141250500Y-93899500D01*
X141272174Y-93847174D01*
X141324500Y-93825500D01*
X141689819Y-93825500D01*
X141689820Y-93825500D01*
X141733722Y-93816767D01*
X141783504Y-93783504D01*
X141816767Y-93733722D01*
X141825500Y-93689820D01*
X141825500Y-92310180D01*
X141816767Y-92266278D01*
X141783504Y-92216496D01*
X141772737Y-92209302D01*
X141733722Y-92183233D01*
X141689820Y-92174500D01*
X141689819Y-92174500D01*
X141324500Y-92174500D01*
X141272174Y-92152826D01*
X141250500Y-92100500D01*
X141250500Y-92003638D01*
X141250856Y-91996385D01*
X141255407Y-91950172D01*
X141264187Y-91861026D01*
X141267014Y-91846813D01*
X141305438Y-91720145D01*
X141310988Y-91706750D01*
X141373381Y-91590021D01*
X141381430Y-91577974D01*
X141465400Y-91475655D01*
X141475657Y-91465399D01*
X141513743Y-91434143D01*
X141577974Y-91381430D01*
X141590021Y-91373381D01*
X141706753Y-91310986D01*
X141720145Y-91305438D01*
X141846813Y-91267014D01*
X141861026Y-91264187D01*
X141996385Y-91250855D01*
X142003638Y-91250500D01*
X142044170Y-91250500D01*
X142159646Y-91250500D01*
X142211972Y-91272174D01*
G37*
%TD.AperFunction*%
%TD*%
M02*
