M48
; DRILL file {KiCad 8.0.3-8.0.3-0~ubuntu23.10.1} date 2024-09-30T16:30:17-0400
; FORMAT={-:-/ absolute / inch / decimal}
; #@! TF.CreationDate,2024-09-30T16:30:17-04:00
; #@! TF.GenerationSoftware,Kicad,Pcbnew,8.0.3-8.0.3-0~ubuntu23.10.1
; #@! TF.FileFunction,Plated,1,4,PTH
FMAT,2
INCH
; #@! TA.AperFunction,Plated,PTH,ComponentDrill
T1C0.0079
; #@! TA.AperFunction,Plated,PTH,ViaDrill
T2C0.0118
; #@! TA.AperFunction,Plated,PTH,ComponentDrill
T3C0.0315
%
G90
G05
T1
X5.8858Y-3.878
X5.8858Y-3.9173
X5.8858Y-3.9567
X5.9252Y-3.878
X5.9252Y-3.9173
X5.9252Y-3.9567
X5.9646Y-3.878
X5.9646Y-3.9173
X5.9646Y-3.9567
T2
X5.5996Y-3.8976
X5.6102Y-3.7008
X5.6102Y-3.7795
X5.6299Y-4.1732
X5.6388Y-4.0217
X5.6693Y-3.622
X5.6693Y-4.1732
X5.7476Y-4.0406
X5.748Y-3.622
X5.748Y-4.252
X5.7839Y-4.0531
X5.7882Y-3.9075
X5.7972Y-3.8319
X5.8268Y-4.252
X5.8465Y-3.6417
X5.8531Y-3.7823
X5.9055Y-3.6417
X5.9055Y-4.252
X5.9154Y-4.1327
X5.9843Y-3.6417
X5.9843Y-4.252
X6.0236Y-3.7992
X6.063Y-3.6417
X6.063Y-4.2126
X6.0803Y-3.9366
X6.0925Y-4.0846
X6.1024Y-3.7697
X6.1417Y-4.1043
X6.1417Y-4.1732
X6.1417Y-4.2126
X6.1811Y-3.7008
X6.1811Y-4.1043
X6.1811Y-4.1732
X6.1811Y-4.2126
X6.2083Y-3.8114
X6.2083Y-3.8949
X6.2083Y-3.9567
X6.2083Y-4.0307
T3
X5.5512Y-3.6614
X5.5512Y-3.7402
X5.5512Y-3.8189
X5.5512Y-3.8976
X5.5512Y-3.9764
X5.5512Y-4.0551
X5.5512Y-4.1339
X5.5512Y-4.2126
X5.6299Y-3.5827
X5.6299Y-4.2913
X5.7087Y-3.5827
X5.7087Y-4.2913
X5.7874Y-3.5827
X5.7874Y-4.2913
X5.8661Y-3.5827
X5.8661Y-4.2913
X5.9449Y-3.5827
X5.9449Y-4.2913
X6.0236Y-3.5827
X6.0236Y-4.2913
X6.1024Y-3.5827
X6.1024Y-4.2913
X6.1811Y-3.5827
X6.1811Y-4.2913
X6.2598Y-3.6614
X6.2598Y-3.7402
X6.2598Y-3.8189
X6.2598Y-3.8976
X6.2598Y-3.9764
X6.2598Y-4.0551
X6.2598Y-4.1339
X6.2598Y-4.2126
M30
