%TF.GenerationSoftware,KiCad,Pcbnew,8.0.3-8.0.3-0~ubuntu23.10.1*%
%TF.CreationDate,2024-09-30T16:30:17-04:00*%
%TF.ProjectId,nPM1300-Stamp,6e504d31-3330-4302-9d53-74616d702e6b,rev?*%
%TF.SameCoordinates,Original*%
%TF.FileFunction,Legend,Top*%
%TF.FilePolarity,Positive*%
%FSLAX46Y46*%
G04 Gerber Fmt 4.6, Leading zero omitted, Abs format (unit mm)*
G04 Created by KiCad (PCBNEW 8.0.3-8.0.3-0~ubuntu23.10.1) date 2024-09-30 16:30:17*
%MOMM*%
%LPD*%
G01*
G04 APERTURE LIST*
G04 Aperture macros list*
%AMRoundRect*
0 Rectangle with rounded corners*
0 $1 Rounding radius*
0 $2 $3 $4 $5 $6 $7 $8 $9 X,Y pos of 4 corners*
0 Add a 4 corners polygon primitive as box body*
4,1,4,$2,$3,$4,$5,$6,$7,$8,$9,$2,$3,0*
0 Add four circle primitives for the rounded corners*
1,1,$1+$1,$2,$3*
1,1,$1+$1,$4,$5*
1,1,$1+$1,$6,$7*
1,1,$1+$1,$8,$9*
0 Add four rect primitives between the rounded corners*
20,1,$1+$1,$2,$3,$4,$5,0*
20,1,$1+$1,$4,$5,$6,$7,0*
20,1,$1+$1,$6,$7,$8,$9,0*
20,1,$1+$1,$8,$9,$2,$3,0*%
G04 Aperture macros list end*
%ADD10C,0.150000*%
%ADD11C,0.120000*%
%ADD12R,1.350000X1.350000*%
%ADD13O,1.350000X1.350000*%
%ADD14RoundRect,0.225000X0.250000X-0.225000X0.250000X0.225000X-0.250000X0.225000X-0.250000X-0.225000X0*%
%ADD15RoundRect,0.225000X-0.225000X-0.250000X0.225000X-0.250000X0.225000X0.250000X-0.225000X0.250000X0*%
%ADD16RoundRect,0.225000X0.225000X0.250000X-0.225000X0.250000X-0.225000X-0.250000X0.225000X-0.250000X0*%
%ADD17RoundRect,0.062500X-0.337500X-0.062500X0.337500X-0.062500X0.337500X0.062500X-0.337500X0.062500X0*%
%ADD18RoundRect,0.062500X-0.062500X-0.337500X0.062500X-0.337500X0.062500X0.337500X-0.062500X0.337500X0*%
%ADD19R,3.600000X3.600000*%
%ADD20R,2.100000X1.100000*%
%ADD21RoundRect,0.225000X-0.250000X0.225000X-0.250000X-0.225000X0.250000X-0.225000X0.250000X0.225000X0*%
%ADD22RoundRect,0.140000X-0.170000X0.140000X-0.170000X-0.140000X0.170000X-0.140000X0.170000X0.140000X0*%
%ADD23R,1.100000X2.100000*%
G04 APERTURE END LIST*
D10*
X144095238Y-93288152D02*
X144095238Y-93954819D01*
X144095238Y-93383390D02*
X144142857Y-93335771D01*
X144142857Y-93335771D02*
X144238095Y-93288152D01*
X144238095Y-93288152D02*
X144380952Y-93288152D01*
X144380952Y-93288152D02*
X144476190Y-93335771D01*
X144476190Y-93335771D02*
X144523809Y-93431009D01*
X144523809Y-93431009D02*
X144523809Y-93954819D01*
X145000000Y-93954819D02*
X145000000Y-92954819D01*
X145000000Y-92954819D02*
X145380952Y-92954819D01*
X145380952Y-92954819D02*
X145476190Y-93002438D01*
X145476190Y-93002438D02*
X145523809Y-93050057D01*
X145523809Y-93050057D02*
X145571428Y-93145295D01*
X145571428Y-93145295D02*
X145571428Y-93288152D01*
X145571428Y-93288152D02*
X145523809Y-93383390D01*
X145523809Y-93383390D02*
X145476190Y-93431009D01*
X145476190Y-93431009D02*
X145380952Y-93478628D01*
X145380952Y-93478628D02*
X145000000Y-93478628D01*
X146000000Y-93954819D02*
X146000000Y-92954819D01*
X146000000Y-92954819D02*
X146333333Y-93669104D01*
X146333333Y-93669104D02*
X146666666Y-92954819D01*
X146666666Y-92954819D02*
X146666666Y-93954819D01*
X147666666Y-93954819D02*
X147095238Y-93954819D01*
X147380952Y-93954819D02*
X147380952Y-92954819D01*
X147380952Y-92954819D02*
X147285714Y-93097676D01*
X147285714Y-93097676D02*
X147190476Y-93192914D01*
X147190476Y-93192914D02*
X147095238Y-93240533D01*
X148000000Y-92954819D02*
X148619047Y-92954819D01*
X148619047Y-92954819D02*
X148285714Y-93335771D01*
X148285714Y-93335771D02*
X148428571Y-93335771D01*
X148428571Y-93335771D02*
X148523809Y-93383390D01*
X148523809Y-93383390D02*
X148571428Y-93431009D01*
X148571428Y-93431009D02*
X148619047Y-93526247D01*
X148619047Y-93526247D02*
X148619047Y-93764342D01*
X148619047Y-93764342D02*
X148571428Y-93859580D01*
X148571428Y-93859580D02*
X148523809Y-93907200D01*
X148523809Y-93907200D02*
X148428571Y-93954819D01*
X148428571Y-93954819D02*
X148142857Y-93954819D01*
X148142857Y-93954819D02*
X148047619Y-93907200D01*
X148047619Y-93907200D02*
X148000000Y-93859580D01*
X149238095Y-92954819D02*
X149333333Y-92954819D01*
X149333333Y-92954819D02*
X149428571Y-93002438D01*
X149428571Y-93002438D02*
X149476190Y-93050057D01*
X149476190Y-93050057D02*
X149523809Y-93145295D01*
X149523809Y-93145295D02*
X149571428Y-93335771D01*
X149571428Y-93335771D02*
X149571428Y-93573866D01*
X149571428Y-93573866D02*
X149523809Y-93764342D01*
X149523809Y-93764342D02*
X149476190Y-93859580D01*
X149476190Y-93859580D02*
X149428571Y-93907200D01*
X149428571Y-93907200D02*
X149333333Y-93954819D01*
X149333333Y-93954819D02*
X149238095Y-93954819D01*
X149238095Y-93954819D02*
X149142857Y-93907200D01*
X149142857Y-93907200D02*
X149095238Y-93859580D01*
X149095238Y-93859580D02*
X149047619Y-93764342D01*
X149047619Y-93764342D02*
X149000000Y-93573866D01*
X149000000Y-93573866D02*
X149000000Y-93335771D01*
X149000000Y-93335771D02*
X149047619Y-93145295D01*
X149047619Y-93145295D02*
X149095238Y-93050057D01*
X149095238Y-93050057D02*
X149142857Y-93002438D01*
X149142857Y-93002438D02*
X149238095Y-92954819D01*
X150190476Y-92954819D02*
X150285714Y-92954819D01*
X150285714Y-92954819D02*
X150380952Y-93002438D01*
X150380952Y-93002438D02*
X150428571Y-93050057D01*
X150428571Y-93050057D02*
X150476190Y-93145295D01*
X150476190Y-93145295D02*
X150523809Y-93335771D01*
X150523809Y-93335771D02*
X150523809Y-93573866D01*
X150523809Y-93573866D02*
X150476190Y-93764342D01*
X150476190Y-93764342D02*
X150428571Y-93859580D01*
X150428571Y-93859580D02*
X150380952Y-93907200D01*
X150380952Y-93907200D02*
X150285714Y-93954819D01*
X150285714Y-93954819D02*
X150190476Y-93954819D01*
X150190476Y-93954819D02*
X150095238Y-93907200D01*
X150095238Y-93907200D02*
X150047619Y-93859580D01*
X150047619Y-93859580D02*
X150000000Y-93764342D01*
X150000000Y-93764342D02*
X149952381Y-93573866D01*
X149952381Y-93573866D02*
X149952381Y-93335771D01*
X149952381Y-93335771D02*
X150000000Y-93145295D01*
X150000000Y-93145295D02*
X150047619Y-93050057D01*
X150047619Y-93050057D02*
X150095238Y-93002438D01*
X150095238Y-93002438D02*
X150190476Y-92954819D01*
X151666667Y-93907200D02*
X151809524Y-93954819D01*
X151809524Y-93954819D02*
X152047619Y-93954819D01*
X152047619Y-93954819D02*
X152142857Y-93907200D01*
X152142857Y-93907200D02*
X152190476Y-93859580D01*
X152190476Y-93859580D02*
X152238095Y-93764342D01*
X152238095Y-93764342D02*
X152238095Y-93669104D01*
X152238095Y-93669104D02*
X152190476Y-93573866D01*
X152190476Y-93573866D02*
X152142857Y-93526247D01*
X152142857Y-93526247D02*
X152047619Y-93478628D01*
X152047619Y-93478628D02*
X151857143Y-93431009D01*
X151857143Y-93431009D02*
X151761905Y-93383390D01*
X151761905Y-93383390D02*
X151714286Y-93335771D01*
X151714286Y-93335771D02*
X151666667Y-93240533D01*
X151666667Y-93240533D02*
X151666667Y-93145295D01*
X151666667Y-93145295D02*
X151714286Y-93050057D01*
X151714286Y-93050057D02*
X151761905Y-93002438D01*
X151761905Y-93002438D02*
X151857143Y-92954819D01*
X151857143Y-92954819D02*
X152095238Y-92954819D01*
X152095238Y-92954819D02*
X152238095Y-93002438D01*
X152523810Y-93288152D02*
X152904762Y-93288152D01*
X152666667Y-92954819D02*
X152666667Y-93811961D01*
X152666667Y-93811961D02*
X152714286Y-93907200D01*
X152714286Y-93907200D02*
X152809524Y-93954819D01*
X152809524Y-93954819D02*
X152904762Y-93954819D01*
X153666667Y-93954819D02*
X153666667Y-93431009D01*
X153666667Y-93431009D02*
X153619048Y-93335771D01*
X153619048Y-93335771D02*
X153523810Y-93288152D01*
X153523810Y-93288152D02*
X153333334Y-93288152D01*
X153333334Y-93288152D02*
X153238096Y-93335771D01*
X153666667Y-93907200D02*
X153571429Y-93954819D01*
X153571429Y-93954819D02*
X153333334Y-93954819D01*
X153333334Y-93954819D02*
X153238096Y-93907200D01*
X153238096Y-93907200D02*
X153190477Y-93811961D01*
X153190477Y-93811961D02*
X153190477Y-93716723D01*
X153190477Y-93716723D02*
X153238096Y-93621485D01*
X153238096Y-93621485D02*
X153333334Y-93573866D01*
X153333334Y-93573866D02*
X153571429Y-93573866D01*
X153571429Y-93573866D02*
X153666667Y-93526247D01*
X154142858Y-93954819D02*
X154142858Y-93288152D01*
X154142858Y-93383390D02*
X154190477Y-93335771D01*
X154190477Y-93335771D02*
X154285715Y-93288152D01*
X154285715Y-93288152D02*
X154428572Y-93288152D01*
X154428572Y-93288152D02*
X154523810Y-93335771D01*
X154523810Y-93335771D02*
X154571429Y-93431009D01*
X154571429Y-93431009D02*
X154571429Y-93954819D01*
X154571429Y-93431009D02*
X154619048Y-93335771D01*
X154619048Y-93335771D02*
X154714286Y-93288152D01*
X154714286Y-93288152D02*
X154857143Y-93288152D01*
X154857143Y-93288152D02*
X154952382Y-93335771D01*
X154952382Y-93335771D02*
X155000001Y-93431009D01*
X155000001Y-93431009D02*
X155000001Y-93954819D01*
X155476191Y-93288152D02*
X155476191Y-94288152D01*
X155476191Y-93335771D02*
X155571429Y-93288152D01*
X155571429Y-93288152D02*
X155761905Y-93288152D01*
X155761905Y-93288152D02*
X155857143Y-93335771D01*
X155857143Y-93335771D02*
X155904762Y-93383390D01*
X155904762Y-93383390D02*
X155952381Y-93478628D01*
X155952381Y-93478628D02*
X155952381Y-93764342D01*
X155952381Y-93764342D02*
X155904762Y-93859580D01*
X155904762Y-93859580D02*
X155857143Y-93907200D01*
X155857143Y-93907200D02*
X155761905Y-93954819D01*
X155761905Y-93954819D02*
X155571429Y-93954819D01*
X155571429Y-93954819D02*
X155476191Y-93907200D01*
D11*
%TO.C,C3*%
X145780000Y-97900580D02*
X145780000Y-97619420D01*
X146800000Y-97900580D02*
X146800000Y-97619420D01*
%TO.C,C5*%
X155999420Y-98420000D02*
X156280580Y-98420000D01*
X155999420Y-99440000D02*
X156280580Y-99440000D01*
%TO.C,C7*%
X147170580Y-94950000D02*
X146889420Y-94950000D01*
X147170580Y-95970000D02*
X146889420Y-95970000D01*
%TO.C,U1*%
X147890000Y-97365000D02*
X147890000Y-97130000D01*
X147890000Y-102110000D02*
X147890000Y-101635000D01*
X148365000Y-96890000D02*
X148190000Y-96890000D01*
X148365000Y-102110000D02*
X147890000Y-102110000D01*
X152635000Y-96890000D02*
X153110000Y-96890000D01*
X152635000Y-102110000D02*
X153110000Y-102110000D01*
X153110000Y-96890000D02*
X153110000Y-97365000D01*
X153110000Y-102110000D02*
X153110000Y-101635000D01*
X147890000Y-96890000D02*
X147650000Y-96560000D01*
X148130000Y-96560000D01*
X147890000Y-96890000D01*
G36*
X147890000Y-96890000D02*
G01*
X147650000Y-96560000D01*
X148130000Y-96560000D01*
X147890000Y-96890000D01*
G37*
%TO.C,L1*%
X142860000Y-96610000D02*
X142860000Y-99130000D01*
X145480000Y-96610000D02*
X145480000Y-99130000D01*
%TO.C,C2*%
X145780000Y-100639420D02*
X145780000Y-100920580D01*
X146800000Y-100639420D02*
X146800000Y-100920580D01*
%TO.C,C6*%
X155999420Y-96290000D02*
X156280580Y-96290000D01*
X155999420Y-97310000D02*
X156280580Y-97310000D01*
%TO.C,C13*%
X155999420Y-101865000D02*
X156280580Y-101865000D01*
X155999420Y-102885000D02*
X156280580Y-102885000D01*
%TO.C,C1*%
X149890000Y-103592164D02*
X149890000Y-103807836D01*
X150610000Y-103592164D02*
X150610000Y-103807836D01*
%TO.C,L2*%
X142710000Y-99470000D02*
X145230000Y-99470000D01*
X142710000Y-102090000D02*
X145230000Y-102090000D01*
%TO.C,C4*%
X155999420Y-99990000D02*
X156280580Y-99990000D01*
X155999420Y-101010000D02*
X156280580Y-101010000D01*
%TO.C,C8*%
X143859420Y-102440000D02*
X144140580Y-102440000D01*
X143859420Y-103460000D02*
X144140580Y-103460000D01*
%TD*%
%LPC*%
D12*
%TO.C,J4*%
X157000000Y-91000000D03*
D13*
X155000000Y-91000000D03*
X153000000Y-91000000D03*
X151000000Y-91000000D03*
X149000000Y-91000000D03*
X147000000Y-91000000D03*
X145000000Y-91000000D03*
X143000000Y-91000000D03*
%TD*%
D14*
%TO.C,C3*%
X146290000Y-98535000D03*
X146290000Y-96985000D03*
%TD*%
D15*
%TO.C,C5*%
X155365000Y-98930000D03*
X156915000Y-98930000D03*
%TD*%
D16*
%TO.C,C7*%
X147805000Y-95460000D03*
X146255000Y-95460000D03*
%TD*%
D17*
%TO.C,U1*%
X148050000Y-97750000D03*
X148050000Y-98250000D03*
X148050000Y-98750000D03*
X148050000Y-99250000D03*
X148050000Y-99750000D03*
X148050000Y-100250000D03*
X148050000Y-100750000D03*
X148050000Y-101250000D03*
D18*
X148750000Y-101950000D03*
X149250000Y-101950000D03*
X149750000Y-101950000D03*
X150250000Y-101950000D03*
X150750000Y-101950000D03*
X151250000Y-101950000D03*
X151750000Y-101950000D03*
X152250000Y-101950000D03*
D17*
X152950000Y-101250000D03*
X152950000Y-100750000D03*
X152950000Y-100250000D03*
X152950000Y-99750000D03*
X152950000Y-99250000D03*
X152950000Y-98750000D03*
X152950000Y-98250000D03*
X152950000Y-97750000D03*
D18*
X152250000Y-97050000D03*
X151750000Y-97050000D03*
X151250000Y-97050000D03*
X150750000Y-97050000D03*
X150250000Y-97050000D03*
X149750000Y-97050000D03*
X149250000Y-97050000D03*
X148750000Y-97050000D03*
D19*
X150500000Y-99500000D03*
%TD*%
D20*
%TO.C,L1*%
X144170000Y-97170000D03*
X144170000Y-98570000D03*
%TD*%
D21*
%TO.C,C2*%
X146290000Y-100005000D03*
X146290000Y-101555000D03*
%TD*%
D15*
%TO.C,C6*%
X155365000Y-96800000D03*
X156915000Y-96800000D03*
%TD*%
%TO.C,C13*%
X155365000Y-102375000D03*
X156915000Y-102375000D03*
%TD*%
D22*
%TO.C,C1*%
X150250000Y-103220000D03*
X150250000Y-104180000D03*
%TD*%
D23*
%TO.C,L2*%
X143270000Y-100780000D03*
X144670000Y-100780000D03*
%TD*%
D12*
%TO.C,J3*%
X159000000Y-107000000D03*
D13*
X159000000Y-105000000D03*
X159000000Y-103000000D03*
X159000000Y-101000000D03*
X159000000Y-99000000D03*
X159000000Y-97000000D03*
X159000000Y-95000000D03*
X159000000Y-93000000D03*
%TD*%
D12*
%TO.C,J1*%
X141000000Y-93000000D03*
D13*
X141000000Y-95000000D03*
X141000000Y-97000000D03*
X141000000Y-99000000D03*
X141000000Y-101000000D03*
X141000000Y-103000000D03*
X141000000Y-105000000D03*
X141000000Y-107000000D03*
%TD*%
D15*
%TO.C,C4*%
X155365000Y-100500000D03*
X156915000Y-100500000D03*
%TD*%
%TO.C,C8*%
X143225000Y-102950000D03*
X144775000Y-102950000D03*
%TD*%
D12*
%TO.C,J2*%
X143000000Y-109000000D03*
D13*
X145000000Y-109000000D03*
X147000000Y-109000000D03*
X149000000Y-109000000D03*
X151000000Y-109000000D03*
X153000000Y-109000000D03*
X155000000Y-109000000D03*
X157000000Y-109000000D03*
%TD*%
%LPD*%
M02*
