%TF.GenerationSoftware,KiCad,Pcbnew,8.0.3-8.0.3-0~ubuntu23.10.1*%
%TF.CreationDate,2024-09-30T16:30:17-04:00*%
%TF.ProjectId,nPM1300-Stamp,6e504d31-3330-4302-9d53-74616d702e6b,rev?*%
%TF.SameCoordinates,Original*%
%TF.FileFunction,Copper,L1,Top*%
%TF.FilePolarity,Positive*%
%FSLAX46Y46*%
G04 Gerber Fmt 4.6, Leading zero omitted, Abs format (unit mm)*
G04 Created by KiCad (PCBNEW 8.0.3-8.0.3-0~ubuntu23.10.1) date 2024-09-30 16:30:17*
%MOMM*%
%LPD*%
G01*
G04 APERTURE LIST*
G04 Aperture macros list*
%AMRoundRect*
0 Rectangle with rounded corners*
0 $1 Rounding radius*
0 $2 $3 $4 $5 $6 $7 $8 $9 X,Y pos of 4 corners*
0 Add a 4 corners polygon primitive as box body*
4,1,4,$2,$3,$4,$5,$6,$7,$8,$9,$2,$3,0*
0 Add four circle primitives for the rounded corners*
1,1,$1+$1,$2,$3*
1,1,$1+$1,$4,$5*
1,1,$1+$1,$6,$7*
1,1,$1+$1,$8,$9*
0 Add four rect primitives between the rounded corners*
20,1,$1+$1,$2,$3,$4,$5,0*
20,1,$1+$1,$4,$5,$6,$7,0*
20,1,$1+$1,$6,$7,$8,$9,0*
20,1,$1+$1,$8,$9,$2,$3,0*%
G04 Aperture macros list end*
%TA.AperFunction,ComponentPad*%
%ADD10R,1.350000X1.350000*%
%TD*%
%TA.AperFunction,ComponentPad*%
%ADD11O,1.350000X1.350000*%
%TD*%
%TA.AperFunction,SMDPad,CuDef*%
%ADD12RoundRect,0.225000X0.250000X-0.225000X0.250000X0.225000X-0.250000X0.225000X-0.250000X-0.225000X0*%
%TD*%
%TA.AperFunction,SMDPad,CuDef*%
%ADD13RoundRect,0.225000X-0.225000X-0.250000X0.225000X-0.250000X0.225000X0.250000X-0.225000X0.250000X0*%
%TD*%
%TA.AperFunction,SMDPad,CuDef*%
%ADD14RoundRect,0.225000X0.225000X0.250000X-0.225000X0.250000X-0.225000X-0.250000X0.225000X-0.250000X0*%
%TD*%
%TA.AperFunction,SMDPad,CuDef*%
%ADD15RoundRect,0.062500X-0.337500X-0.062500X0.337500X-0.062500X0.337500X0.062500X-0.337500X0.062500X0*%
%TD*%
%TA.AperFunction,SMDPad,CuDef*%
%ADD16RoundRect,0.062500X-0.062500X-0.337500X0.062500X-0.337500X0.062500X0.337500X-0.062500X0.337500X0*%
%TD*%
%TA.AperFunction,HeatsinkPad*%
%ADD17C,0.500000*%
%TD*%
%TA.AperFunction,HeatsinkPad*%
%ADD18R,3.600000X3.600000*%
%TD*%
%TA.AperFunction,SMDPad,CuDef*%
%ADD19R,2.100000X1.100000*%
%TD*%
%TA.AperFunction,SMDPad,CuDef*%
%ADD20RoundRect,0.225000X-0.250000X0.225000X-0.250000X-0.225000X0.250000X-0.225000X0.250000X0.225000X0*%
%TD*%
%TA.AperFunction,SMDPad,CuDef*%
%ADD21RoundRect,0.140000X-0.170000X0.140000X-0.170000X-0.140000X0.170000X-0.140000X0.170000X0.140000X0*%
%TD*%
%TA.AperFunction,SMDPad,CuDef*%
%ADD22R,1.100000X2.100000*%
%TD*%
%TA.AperFunction,ViaPad*%
%ADD23C,0.600000*%
%TD*%
%TA.AperFunction,Conductor*%
%ADD24C,0.200000*%
%TD*%
%TA.AperFunction,Conductor*%
%ADD25C,0.250000*%
%TD*%
G04 APERTURE END LIST*
D10*
%TO.P,J4,1,Pin_1*%
%TO.N,GND*%
X157000000Y-91000000D03*
D11*
%TO.P,J4,2,Pin_2*%
%TO.N,/LED0*%
X155000000Y-91000000D03*
%TO.P,J4,3,Pin_3*%
%TO.N,/LED1*%
X153000000Y-91000000D03*
%TO.P,J4,4,Pin_4*%
%TO.N,/LED2*%
X151000000Y-91000000D03*
%TO.P,J4,5,Pin_5*%
%TO.N,/LS1_IN*%
X149000000Y-91000000D03*
%TO.P,J4,6,Pin_6*%
%TO.N,/LS1_OUT*%
X147000000Y-91000000D03*
%TO.P,J4,7,Pin_7*%
%TO.N,/LS2_IN*%
X145000000Y-91000000D03*
%TO.P,J4,8,Pin_8*%
%TO.N,/LS2_OUT*%
X143000000Y-91000000D03*
%TD*%
D12*
%TO.P,C3,1*%
%TO.N,/VSYS*%
X146290000Y-98535000D03*
%TO.P,C3,2*%
%TO.N,GND*%
X146290000Y-96985000D03*
%TD*%
D13*
%TO.P,C5,1*%
%TO.N,/VBUS_IN*%
X155365000Y-98930000D03*
%TO.P,C5,2*%
%TO.N,GND*%
X156915000Y-98930000D03*
%TD*%
D14*
%TO.P,C7,1*%
%TO.N,/VOUT1*%
X147805000Y-95460000D03*
%TO.P,C7,2*%
%TO.N,GND*%
X146255000Y-95460000D03*
%TD*%
D15*
%TO.P,U1,1,VOUT1*%
%TO.N,/VOUT1*%
X148050000Y-97750000D03*
%TO.P,U1,2,PVSS1*%
%TO.N,GND*%
X148050000Y-98250000D03*
%TO.P,U1,3,SW1*%
%TO.N,Net-(U1-SW1)*%
X148050000Y-98750000D03*
%TO.P,U1,4,PVDD*%
%TO.N,/VSYS*%
X148050000Y-99250000D03*
%TO.P,U1,5,SW2*%
%TO.N,Net-(U1-SW2)*%
X148050000Y-99750000D03*
%TO.P,U1,6,PVSS2*%
%TO.N,GND*%
X148050000Y-100250000D03*
%TO.P,U1,7,GPIO0*%
%TO.N,/GPIO0*%
X148050000Y-100750000D03*
%TO.P,U1,8,GPIO1*%
%TO.N,/GPIO1*%
X148050000Y-101250000D03*
D16*
%TO.P,U1,9,GPIO2*%
%TO.N,/GPIO2*%
X148750000Y-101950000D03*
%TO.P,U1,10,GPIO3*%
%TO.N,/GPIO3*%
X149250000Y-101950000D03*
%TO.P,U1,11,GPIO4*%
%TO.N,/GPIO4*%
X149750000Y-101950000D03*
%TO.P,U1,12,VDDIO*%
%TO.N,/VDDIO*%
X150250000Y-101950000D03*
%TO.P,U1,13,SDA*%
%TO.N,/SDA_NPM1300*%
X150750000Y-101950000D03*
%TO.P,U1,14,SCL*%
%TO.N,/SCL_NPM1300*%
X151250000Y-101950000D03*
%TO.P,U1,15,SHPHLD*%
%TO.N,/SHPLD*%
X151750000Y-101950000D03*
%TO.P,U1,16,VSET2*%
%TO.N,/VSET2*%
X152250000Y-101950000D03*
D15*
%TO.P,U1,17,VSET1*%
%TO.N,/VSET1*%
X152950000Y-101250000D03*
%TO.P,U1,18,NTC*%
%TO.N,/NTC*%
X152950000Y-100750000D03*
%TO.P,U1,19,VBAT*%
%TO.N,/VBAT*%
X152950000Y-100250000D03*
%TO.P,U1,20,VSYS*%
%TO.N,/VSYS*%
X152950000Y-99750000D03*
%TO.P,U1,21,VBUS*%
%TO.N,/VBUS_IN*%
X152950000Y-99250000D03*
%TO.P,U1,22,VBUSOUT*%
%TO.N,/VBUS_OUT*%
X152950000Y-98750000D03*
%TO.P,U1,23,CC1*%
%TO.N,/CC1*%
X152950000Y-98250000D03*
%TO.P,U1,24,CC2*%
%TO.N,/CC2*%
X152950000Y-97750000D03*
D16*
%TO.P,U1,25,LED0*%
%TO.N,/LED0*%
X152250000Y-97050000D03*
%TO.P,U1,26,LED1*%
%TO.N,/LED1*%
X151750000Y-97050000D03*
%TO.P,U1,27,LED2*%
%TO.N,/LED2*%
X151250000Y-97050000D03*
%TO.P,U1,28,LSIN1/VINLDO1*%
%TO.N,/LS1_IN*%
X150750000Y-97050000D03*
%TO.P,U1,29,LSOUT1/VOUTLDO1*%
%TO.N,/LS1_OUT*%
X150250000Y-97050000D03*
%TO.P,U1,30,LSIN2/VINLDO2*%
%TO.N,/LS2_IN*%
X149750000Y-97050000D03*
%TO.P,U1,31,LSOUT2/VOUTLDO2*%
%TO.N,/LS2_OUT*%
X149250000Y-97050000D03*
%TO.P,U1,32,VOUT2*%
%TO.N,/VOUT2*%
X148750000Y-97050000D03*
D17*
%TO.P,U1,33,AVSS*%
%TO.N,GND*%
X149500000Y-98500000D03*
X149500000Y-99500000D03*
X149500000Y-100500000D03*
X150500000Y-98500000D03*
X150500000Y-99500000D03*
D18*
X150500000Y-99500000D03*
D17*
X150500000Y-100500000D03*
X151500000Y-98500000D03*
X151500000Y-99500000D03*
X151500000Y-100500000D03*
%TD*%
D19*
%TO.P,L1,1*%
%TO.N,/VOUT1*%
X144170000Y-97170000D03*
%TO.P,L1,2*%
%TO.N,Net-(U1-SW1)*%
X144170000Y-98570000D03*
%TD*%
D20*
%TO.P,C2,1*%
%TO.N,/VSYS*%
X146290000Y-100005000D03*
%TO.P,C2,2*%
%TO.N,GND*%
X146290000Y-101555000D03*
%TD*%
D13*
%TO.P,C6,1*%
%TO.N,/VBUS_OUT*%
X155365000Y-96800000D03*
%TO.P,C6,2*%
%TO.N,GND*%
X156915000Y-96800000D03*
%TD*%
%TO.P,C13,1*%
%TO.N,/VBAT*%
X155365000Y-102375000D03*
%TO.P,C13,2*%
%TO.N,GND*%
X156915000Y-102375000D03*
%TD*%
D21*
%TO.P,C1,1*%
%TO.N,/VDDIO*%
X150250000Y-103220000D03*
%TO.P,C1,2*%
%TO.N,GND*%
X150250000Y-104180000D03*
%TD*%
D22*
%TO.P,L2,1*%
%TO.N,/VOUT2*%
X143270000Y-100780000D03*
%TO.P,L2,2*%
%TO.N,Net-(U1-SW2)*%
X144670000Y-100780000D03*
%TD*%
D10*
%TO.P,J3,1,Pin_1*%
%TO.N,GND*%
X159000000Y-107000000D03*
D11*
%TO.P,J3,2,Pin_2*%
%TO.N,/NTC*%
X159000000Y-105000000D03*
%TO.P,J3,3,Pin_3*%
%TO.N,/VBAT*%
X159000000Y-103000000D03*
%TO.P,J3,4,Pin_4*%
%TO.N,/VSYS*%
X159000000Y-101000000D03*
%TO.P,J3,5,Pin_5*%
%TO.N,/VBUS_IN*%
X159000000Y-99000000D03*
%TO.P,J3,6,Pin_6*%
%TO.N,/VBUS_OUT*%
X159000000Y-97000000D03*
%TO.P,J3,7,Pin_7*%
%TO.N,/CC1*%
X159000000Y-95000000D03*
%TO.P,J3,8,Pin_8*%
%TO.N,/CC2*%
X159000000Y-93000000D03*
%TD*%
D10*
%TO.P,J1,1,Pin_1*%
%TO.N,/VOUT1*%
X141000000Y-93000000D03*
D11*
%TO.P,J1,2,Pin_2*%
%TO.N,/VOUT2*%
X141000000Y-95000000D03*
%TO.P,J1,3,Pin_3*%
%TO.N,GND*%
X141000000Y-97000000D03*
%TO.P,J1,4,Pin_4*%
%TO.N,/GPIO0*%
X141000000Y-99000000D03*
%TO.P,J1,5,Pin_5*%
%TO.N,/GPIO1*%
X141000000Y-101000000D03*
%TO.P,J1,6,Pin_6*%
%TO.N,/GPIO2*%
X141000000Y-103000000D03*
%TO.P,J1,7,Pin_7*%
%TO.N,/GPIO3*%
X141000000Y-105000000D03*
%TO.P,J1,8,Pin_8*%
%TO.N,GND*%
X141000000Y-107000000D03*
%TD*%
D13*
%TO.P,C4,1*%
%TO.N,/VSYS*%
X155365000Y-100500000D03*
%TO.P,C4,2*%
%TO.N,GND*%
X156915000Y-100500000D03*
%TD*%
%TO.P,C8,1*%
%TO.N,/VOUT2*%
X143225000Y-102950000D03*
%TO.P,C8,2*%
%TO.N,GND*%
X144775000Y-102950000D03*
%TD*%
D10*
%TO.P,J2,1,Pin_1*%
%TO.N,/GPIO4*%
X143000000Y-109000000D03*
D11*
%TO.P,J2,2,Pin_2*%
%TO.N,/VDDIO*%
X145000000Y-109000000D03*
%TO.P,J2,3,Pin_3*%
%TO.N,/SDA_NPM1300*%
X147000000Y-109000000D03*
%TO.P,J2,4,Pin_4*%
%TO.N,/SCL_NPM1300*%
X149000000Y-109000000D03*
%TO.P,J2,5,Pin_5*%
%TO.N,/SHPLD*%
X151000000Y-109000000D03*
%TO.P,J2,6,Pin_6*%
%TO.N,/VSET2*%
X153000000Y-109000000D03*
%TO.P,J2,7,Pin_7*%
%TO.N,/VSET1*%
X155000000Y-109000000D03*
%TO.P,J2,8,Pin_8*%
%TO.N,GND*%
X157000000Y-109000000D03*
%TD*%
D23*
%TO.N,GND*%
X157000000Y-104250000D03*
X146000000Y-108000000D03*
X148000000Y-108000000D03*
X157690000Y-98930000D03*
X157000000Y-107000000D03*
X157000000Y-106000000D03*
X146000000Y-92000000D03*
X144000000Y-106000000D03*
X143000000Y-106000000D03*
X156000000Y-106000000D03*
X142500000Y-96000000D03*
X156000000Y-104250000D03*
X152000000Y-108000000D03*
X157000000Y-94000000D03*
X154750000Y-103750000D03*
X157690000Y-102380000D03*
X154000000Y-92500000D03*
X150000000Y-92500000D03*
X142500000Y-94000000D03*
X144000000Y-92000000D03*
X157690000Y-100500000D03*
X157690000Y-96810000D03*
X153000000Y-96500000D03*
X156000000Y-107000000D03*
X154000000Y-107000000D03*
X152000000Y-92500000D03*
X155000000Y-95750000D03*
X147250000Y-97330000D03*
X150250000Y-104970000D03*
X148500000Y-92500000D03*
X145990000Y-102630000D03*
X150000000Y-108000000D03*
%TO.N,/VSYS*%
X154440000Y-99990000D03*
X147020000Y-99250000D03*
%TO.N,/VOUT2*%
X148670000Y-96070000D03*
X143225000Y-102150000D03*
%TO.N,/GPIO0*%
X142230000Y-99000000D03*
X146910000Y-102950000D03*
%TD*%
D24*
%TO.N,GND*%
X147622249Y-100250000D02*
X148050000Y-100250000D01*
X156915000Y-98930000D02*
X157690000Y-98930000D01*
D25*
X147560000Y-98250000D02*
X147360000Y-98050000D01*
X146290000Y-96985000D02*
X146290000Y-95495000D01*
D24*
X147030000Y-101390000D02*
X147030000Y-100842249D01*
X147030000Y-100842249D02*
X147622249Y-100250000D01*
X156915000Y-102375000D02*
X157685000Y-102375000D01*
D25*
X147360000Y-97440000D02*
X147250000Y-97330000D01*
D24*
X146290000Y-102330000D02*
X146290000Y-101555000D01*
X157685000Y-102375000D02*
X157690000Y-102380000D01*
D25*
X147360000Y-98050000D02*
X147360000Y-97440000D01*
D24*
X150250000Y-104180000D02*
X150250000Y-104970000D01*
X144775000Y-102950000D02*
X145670000Y-102950000D01*
X146290000Y-101555000D02*
X146865000Y-101555000D01*
X145670000Y-102950000D02*
X146290000Y-102330000D01*
X156915000Y-100500000D02*
X157690000Y-100500000D01*
D25*
X146290000Y-96985000D02*
X146905000Y-96985000D01*
X146905000Y-96985000D02*
X147250000Y-97330000D01*
D24*
X156915000Y-96800000D02*
X157680000Y-96800000D01*
D25*
X148050000Y-98250000D02*
X147560000Y-98250000D01*
D24*
X156915000Y-98930000D02*
X156915000Y-100500000D01*
X157680000Y-96800000D02*
X157690000Y-96810000D01*
D25*
X146290000Y-95495000D02*
X146255000Y-95460000D01*
D24*
X146865000Y-101555000D02*
X147030000Y-101390000D01*
%TO.N,/VBUS_IN*%
X155365000Y-98930000D02*
X155365000Y-98275000D01*
X152950000Y-99250000D02*
X153970000Y-99250000D01*
X155500000Y-98140000D02*
X158140000Y-98140000D01*
X155365000Y-98275000D02*
X155500000Y-98140000D01*
X154290000Y-98930000D02*
X155365000Y-98930000D01*
X158140000Y-98140000D02*
X159000000Y-99000000D01*
X153970000Y-99250000D02*
X154290000Y-98930000D01*
%TO.N,/VBUS_OUT*%
X152950000Y-98750000D02*
X153800000Y-98750000D01*
X155365000Y-97455000D02*
X155365000Y-96800000D01*
X155365000Y-96800000D02*
X155365000Y-96225000D01*
X154830000Y-97720000D02*
X155100000Y-97720000D01*
X155700000Y-95890000D02*
X157890000Y-95890000D01*
X155365000Y-96225000D02*
X155700000Y-95890000D01*
X157890000Y-95890000D02*
X159000000Y-97000000D01*
X155100000Y-97720000D02*
X155365000Y-97455000D01*
X153800000Y-98750000D02*
X154830000Y-97720000D01*
%TO.N,/VBAT*%
X153680000Y-100250000D02*
X154810000Y-101380000D01*
X152950000Y-100250000D02*
X153680000Y-100250000D01*
X155365000Y-102935000D02*
X155820000Y-103390000D01*
X155365000Y-101655000D02*
X155365000Y-102375000D01*
X154810000Y-101380000D02*
X155090000Y-101380000D01*
X158050000Y-103000000D02*
X159000000Y-103000000D01*
X155820000Y-103390000D02*
X157660000Y-103390000D01*
X155090000Y-101380000D02*
X155365000Y-101655000D01*
X157660000Y-103390000D02*
X158050000Y-103000000D01*
X155365000Y-102375000D02*
X155365000Y-102935000D01*
%TO.N,/LS2_IN*%
X149750000Y-97050000D02*
X149750000Y-95264314D01*
X145260000Y-92720000D02*
X145000000Y-92460000D01*
X145000000Y-92460000D02*
X145000000Y-91000000D01*
X147205686Y-92720000D02*
X145260000Y-92720000D01*
X149750000Y-95264314D02*
X147205686Y-92720000D01*
%TO.N,/CC1*%
X154130000Y-97855686D02*
X154130000Y-95810000D01*
X154130000Y-95810000D02*
X154940000Y-95000000D01*
X153735686Y-98250000D02*
X154130000Y-97855686D01*
X152950000Y-98250000D02*
X153735686Y-98250000D01*
X154940000Y-95000000D02*
X159000000Y-95000000D01*
%TO.N,/VSET2*%
X153000000Y-103250000D02*
X153000000Y-109000000D01*
X152250000Y-102500000D02*
X153000000Y-103250000D01*
X152250000Y-101950000D02*
X152250000Y-102500000D01*
%TO.N,/LED0*%
X152250000Y-97050000D02*
X152250000Y-95780000D01*
X152250000Y-95780000D02*
X155000000Y-93030000D01*
X155000000Y-93030000D02*
X155000000Y-91000000D01*
%TO.N,/CC2*%
X153730000Y-95540000D02*
X156270000Y-93000000D01*
X153730000Y-97690000D02*
X153730000Y-95540000D01*
X156270000Y-93000000D02*
X159000000Y-93000000D01*
X153670000Y-97750000D02*
X153730000Y-97690000D01*
X152950000Y-97750000D02*
X153670000Y-97750000D01*
%TO.N,/SHPLD*%
X151000000Y-109000000D02*
X151000000Y-107710000D01*
X152084315Y-102900000D02*
X151750000Y-102565685D01*
X152084315Y-106625685D02*
X152084315Y-102900000D01*
X151750000Y-102565685D02*
X151750000Y-101950000D01*
X151000000Y-107710000D02*
X152084315Y-106625685D01*
%TO.N,/SCL_NPM1300*%
X151560000Y-103028180D02*
X151250000Y-102718180D01*
X151250000Y-102718180D02*
X151250000Y-101950000D01*
X149000000Y-109000000D02*
X149000000Y-108130000D01*
X151560000Y-105570000D02*
X151560000Y-103028180D01*
X149000000Y-108130000D02*
X151560000Y-105570000D01*
%TO.N,/NTC*%
X153580000Y-100750000D02*
X154200000Y-101370000D01*
X152950000Y-100750000D02*
X153580000Y-100750000D01*
X154810000Y-105000000D02*
X159000000Y-105000000D01*
X154200000Y-101370000D02*
X154200000Y-104390000D01*
X154200000Y-104390000D02*
X154810000Y-105000000D01*
%TO.N,/LS2_OUT*%
X146800000Y-93120000D02*
X149250000Y-95570000D01*
X143930000Y-93120000D02*
X146800000Y-93120000D01*
X149250000Y-95570000D02*
X149250000Y-97050000D01*
X143000000Y-91000000D02*
X143000000Y-92190000D01*
X143000000Y-92190000D02*
X143930000Y-93120000D01*
%TO.N,/LS1_OUT*%
X147000000Y-91870000D02*
X150250000Y-95120000D01*
X150250000Y-95120000D02*
X150250000Y-97050000D01*
X147000000Y-91000000D02*
X147000000Y-91870000D01*
%TO.N,/GPIO2*%
X142010000Y-103210000D02*
X141800000Y-103000000D01*
X142580000Y-104520000D02*
X142010000Y-103950000D01*
X142010000Y-103950000D02*
X142010000Y-103210000D01*
X147930000Y-104270000D02*
X147680000Y-104520000D01*
X141800000Y-103000000D02*
X141000000Y-103000000D01*
X148750000Y-102490000D02*
X147930000Y-103310000D01*
X147680000Y-104520000D02*
X142580000Y-104520000D01*
X148750000Y-101950000D02*
X148750000Y-102490000D01*
X147930000Y-103310000D02*
X147930000Y-104270000D01*
%TO.N,/LED2*%
X151000000Y-91000000D02*
X151000000Y-93050000D01*
X151000000Y-93050000D02*
X151250000Y-93300000D01*
X151250000Y-97050000D02*
X151250000Y-93300000D01*
%TO.N,/LS1_IN*%
X150750000Y-94030000D02*
X149000000Y-92280000D01*
X149000000Y-92280000D02*
X149000000Y-91000000D01*
X150750000Y-97050000D02*
X150750000Y-94030000D01*
%TO.N,/SDA_NPM1300*%
X151130000Y-105190000D02*
X149730000Y-106590000D01*
X147980000Y-106590000D02*
X147000000Y-107570000D01*
X150750000Y-102783866D02*
X151130000Y-103163866D01*
X147000000Y-107570000D02*
X147000000Y-109000000D01*
X151130000Y-103163866D02*
X151130000Y-105190000D01*
X150750000Y-101950000D02*
X150750000Y-102783866D01*
X149730000Y-106590000D02*
X147980000Y-106590000D01*
%TO.N,/GPIO1*%
X147580000Y-103850000D02*
X147340000Y-104090000D01*
X148050000Y-101250000D02*
X148050000Y-102480000D01*
X142680000Y-104090000D02*
X142370000Y-103780000D01*
X147580000Y-102950000D02*
X147580000Y-103850000D01*
X142370000Y-101470000D02*
X141900000Y-101000000D01*
X147340000Y-104090000D02*
X142680000Y-104090000D01*
X142370000Y-103780000D02*
X142370000Y-101470000D01*
X141900000Y-101000000D02*
X141000000Y-101000000D01*
X148050000Y-102480000D02*
X147580000Y-102950000D01*
%TO.N,/GPIO3*%
X147870000Y-105000000D02*
X148300000Y-104570000D01*
X148300000Y-104570000D02*
X148300000Y-103460000D01*
X148300000Y-103460000D02*
X149250000Y-102510000D01*
X149250000Y-102510000D02*
X149250000Y-101950000D01*
X141000000Y-105000000D02*
X147870000Y-105000000D01*
%TO.N,/VSET1*%
X153510000Y-101250000D02*
X153770000Y-101510000D01*
X155000000Y-106650000D02*
X155000000Y-109000000D01*
X152950000Y-101250000D02*
X153510000Y-101250000D01*
X153770000Y-101510000D02*
X153770000Y-105420000D01*
X153770000Y-105420000D02*
X155000000Y-106650000D01*
%TO.N,/LED1*%
X153000000Y-91000000D02*
X153000000Y-93390000D01*
X153000000Y-93390000D02*
X151750000Y-94640000D01*
X151750000Y-94640000D02*
X151750000Y-97050000D01*
%TO.N,/VDDIO*%
X149740000Y-103220000D02*
X150250000Y-103220000D01*
X148540000Y-106150000D02*
X149220000Y-105470000D01*
X149220000Y-103740000D02*
X149740000Y-103220000D01*
X145000000Y-109000000D02*
X145000000Y-107820000D01*
X149220000Y-105470000D02*
X149220000Y-103740000D01*
X150250000Y-103220000D02*
X150250000Y-101950000D01*
X145000000Y-107820000D02*
X146670000Y-106150000D01*
X146670000Y-106150000D02*
X148540000Y-106150000D01*
%TO.N,/VSYS*%
X154200000Y-99750000D02*
X154440000Y-99990000D01*
D25*
X148050000Y-99250000D02*
X146290000Y-99250000D01*
D24*
X155365000Y-100500000D02*
X154750000Y-100500000D01*
X155540000Y-101290000D02*
X155365000Y-101115000D01*
X157790000Y-101290000D02*
X155540000Y-101290000D01*
D25*
X146290000Y-100005000D02*
X146290000Y-99250000D01*
X146290000Y-99250000D02*
X146290000Y-98535000D01*
D24*
X159000000Y-101000000D02*
X158080000Y-101000000D01*
X158080000Y-101000000D02*
X157790000Y-101290000D01*
X154750000Y-100500000D02*
X154440000Y-100190000D01*
X154440000Y-100190000D02*
X154440000Y-99990000D01*
X152950000Y-99750000D02*
X154200000Y-99750000D01*
X155365000Y-101115000D02*
X155365000Y-100500000D01*
%TO.N,/VOUT1*%
X144440000Y-94030000D02*
X144170000Y-94300000D01*
X147805000Y-94745000D02*
X147090000Y-94030000D01*
X147090000Y-94030000D02*
X144440000Y-94030000D01*
X147805000Y-95460000D02*
X147805000Y-94745000D01*
X148050000Y-97750000D02*
X148050000Y-97030000D01*
X144170000Y-94300000D02*
X144170000Y-97170000D01*
X141000000Y-93000000D02*
X142870000Y-93000000D01*
X142870000Y-93000000D02*
X144170000Y-94300000D01*
X148050000Y-97030000D02*
X147805000Y-96785000D01*
X147805000Y-96785000D02*
X147805000Y-95460000D01*
%TO.N,/VOUT2*%
X148750000Y-96150000D02*
X148750000Y-97050000D01*
D25*
X143225000Y-100825000D02*
X143270000Y-100780000D01*
D24*
X148670000Y-96070000D02*
X148750000Y-96150000D01*
D25*
X143225000Y-102950000D02*
X143225000Y-100825000D01*
D24*
%TO.N,Net-(U1-SW1)*%
X145450000Y-98060000D02*
X145750000Y-97760000D01*
X145450000Y-98540000D02*
X145450000Y-98060000D01*
X147200000Y-98750000D02*
X148050000Y-98750000D01*
X146990000Y-98117370D02*
X146990000Y-98540000D01*
X145750000Y-97760000D02*
X146632630Y-97760000D01*
X146990000Y-98540000D02*
X147200000Y-98750000D01*
X145420000Y-98570000D02*
X145450000Y-98540000D01*
X146632630Y-97760000D02*
X146990000Y-98117370D01*
X144170000Y-98570000D02*
X145420000Y-98570000D01*
%TO.N,Net-(U1-SW2)*%
X146632630Y-100780000D02*
X147662630Y-99750000D01*
X147662630Y-99750000D02*
X148050000Y-99750000D01*
X144670000Y-100780000D02*
X146632630Y-100780000D01*
%TO.N,/GPIO4*%
X144690000Y-107250000D02*
X143400000Y-107250000D01*
X143000000Y-107650000D02*
X143000000Y-109000000D01*
X148730000Y-105180000D02*
X148230000Y-105680000D01*
X149750000Y-101950000D02*
X149750000Y-102610000D01*
X149750000Y-102610000D02*
X148730000Y-103630000D01*
X143400000Y-107250000D02*
X143000000Y-107650000D01*
X148730000Y-103630000D02*
X148730000Y-105180000D01*
X148230000Y-105680000D02*
X146260000Y-105680000D01*
X146260000Y-105680000D02*
X144690000Y-107250000D01*
%TO.N,/GPIO0*%
X141000000Y-99000000D02*
X142230000Y-99000000D01*
X147500000Y-100840000D02*
X147360000Y-100980000D01*
X148050000Y-100750000D02*
X147590000Y-100750000D01*
X147590000Y-100750000D02*
X147500000Y-100840000D01*
X147360000Y-100980000D02*
X147360000Y-101800000D01*
X147360000Y-101800000D02*
X147360000Y-102500000D01*
X147360000Y-102500000D02*
X146910000Y-102950000D01*
%TD*%
%TA.AperFunction,Conductor*%
%TO.N,GND*%
G36*
X148457826Y-104871085D02*
G01*
X148479500Y-104923411D01*
X148479500Y-105045587D01*
X148457826Y-105097913D01*
X148147913Y-105407826D01*
X148095587Y-105429500D01*
X146210172Y-105429500D01*
X146118105Y-105467634D01*
X144607913Y-106977826D01*
X144555587Y-106999500D01*
X143350172Y-106999500D01*
X143258105Y-107037634D01*
X142787634Y-107508105D01*
X142749500Y-107600170D01*
X142749500Y-108100500D01*
X142727826Y-108152826D01*
X142675500Y-108174500D01*
X142310180Y-108174500D01*
X142288229Y-108178866D01*
X142266277Y-108183233D01*
X142216496Y-108216495D01*
X142216495Y-108216496D01*
X142183233Y-108266277D01*
X142174500Y-108310180D01*
X142174500Y-108675500D01*
X142152826Y-108727826D01*
X142100500Y-108749500D01*
X142003638Y-108749500D01*
X141996385Y-108749144D01*
X141861033Y-108735813D01*
X141846805Y-108732983D01*
X141720152Y-108694563D01*
X141706750Y-108689011D01*
X141590027Y-108626621D01*
X141577968Y-108618564D01*
X141523331Y-108573725D01*
X141475657Y-108534600D01*
X141465399Y-108524342D01*
X141429029Y-108480025D01*
X141381434Y-108422029D01*
X141373378Y-108409972D01*
X141310988Y-108293249D01*
X141305436Y-108279847D01*
X141289542Y-108227452D01*
X141287880Y-108221971D01*
X141293432Y-108165607D01*
X141331962Y-108131488D01*
X141525980Y-108056324D01*
X141525990Y-108056319D01*
X141711129Y-107941686D01*
X141711130Y-107941686D01*
X141872056Y-107794984D01*
X141872057Y-107794983D01*
X142003282Y-107621212D01*
X142003284Y-107621209D01*
X142100348Y-107426276D01*
X142100350Y-107426271D01*
X142150505Y-107250000D01*
X141324500Y-107250000D01*
X141318267Y-107247418D01*
X141320080Y-107245606D01*
X141372741Y-107154394D01*
X141400000Y-107052661D01*
X141400000Y-106947339D01*
X141372741Y-106845606D01*
X141320080Y-106754394D01*
X141318267Y-106752581D01*
X141324500Y-106750000D01*
X142150505Y-106750000D01*
X142100350Y-106573728D01*
X142100348Y-106573723D01*
X142003284Y-106378790D01*
X142003282Y-106378787D01*
X141872057Y-106205016D01*
X141872056Y-106205015D01*
X141711129Y-106058313D01*
X141525990Y-105943680D01*
X141525980Y-105943675D01*
X141362487Y-105880336D01*
X141321524Y-105841223D01*
X141320216Y-105784601D01*
X141359118Y-105743732D01*
X141415024Y-105718842D01*
X141555410Y-105616845D01*
X141671522Y-105487889D01*
X141758286Y-105337611D01*
X141769976Y-105301633D01*
X141806758Y-105258566D01*
X141840354Y-105250500D01*
X147919827Y-105250500D01*
X147919828Y-105250500D01*
X148011897Y-105212364D01*
X148353174Y-104871084D01*
X148405500Y-104849411D01*
X148457826Y-104871085D01*
G37*
%TD.AperFunction*%
%TA.AperFunction,Conductor*%
G36*
X147688913Y-106422174D02*
G01*
X147710587Y-106474500D01*
X147688913Y-106526826D01*
X146787634Y-107428105D01*
X146749500Y-107520170D01*
X146749500Y-108159850D01*
X146727826Y-108212176D01*
X146705599Y-108227452D01*
X146584978Y-108281156D01*
X146584973Y-108281159D01*
X146444592Y-108383152D01*
X146328478Y-108512109D01*
X146328475Y-108512114D01*
X146241712Y-108662391D01*
X146230024Y-108698367D01*
X146193242Y-108741434D01*
X146159646Y-108749500D01*
X145840354Y-108749500D01*
X145788028Y-108727826D01*
X145769976Y-108698367D01*
X145758287Y-108662391D01*
X145671524Y-108512114D01*
X145671521Y-108512109D01*
X145555407Y-108383152D01*
X145415030Y-108281161D01*
X145415022Y-108281157D01*
X145294401Y-108227452D01*
X145255415Y-108186369D01*
X145250500Y-108159850D01*
X145250500Y-107954412D01*
X145272174Y-107902086D01*
X146752086Y-106422174D01*
X146804412Y-106400500D01*
X147636587Y-106400500D01*
X147688913Y-106422174D01*
G37*
%TD.AperFunction*%
%TA.AperFunction,Conductor*%
G36*
X149808912Y-106862174D02*
G01*
X149830586Y-106914500D01*
X149808912Y-106966826D01*
X148787637Y-107988101D01*
X148787634Y-107988105D01*
X148749500Y-108080170D01*
X148749500Y-108159850D01*
X148727826Y-108212176D01*
X148705599Y-108227452D01*
X148584978Y-108281156D01*
X148584973Y-108281159D01*
X148444592Y-108383152D01*
X148328478Y-108512109D01*
X148328475Y-108512114D01*
X148241712Y-108662391D01*
X148230024Y-108698367D01*
X148193242Y-108741434D01*
X148159646Y-108749500D01*
X147840354Y-108749500D01*
X147788028Y-108727826D01*
X147769976Y-108698367D01*
X147758287Y-108662391D01*
X147671524Y-108512114D01*
X147671521Y-108512109D01*
X147555407Y-108383152D01*
X147415030Y-108281161D01*
X147415022Y-108281157D01*
X147294401Y-108227452D01*
X147255415Y-108186369D01*
X147250500Y-108159850D01*
X147250500Y-107704413D01*
X147272174Y-107652087D01*
X148062087Y-106862174D01*
X148114413Y-106840500D01*
X149756586Y-106840500D01*
X149808912Y-106862174D01*
G37*
%TD.AperFunction*%
%TA.AperFunction,Conductor*%
G36*
X151812141Y-105776772D02*
G01*
X151833815Y-105829098D01*
X151833815Y-106491272D01*
X151812141Y-106543598D01*
X150787634Y-107568105D01*
X150749500Y-107660170D01*
X150749500Y-108159850D01*
X150727826Y-108212176D01*
X150705599Y-108227452D01*
X150584978Y-108281156D01*
X150584973Y-108281159D01*
X150444592Y-108383152D01*
X150328478Y-108512109D01*
X150328475Y-108512114D01*
X150241712Y-108662391D01*
X150230024Y-108698367D01*
X150193242Y-108741434D01*
X150159646Y-108749500D01*
X149840354Y-108749500D01*
X149788028Y-108727826D01*
X149769976Y-108698367D01*
X149758287Y-108662391D01*
X149671524Y-108512114D01*
X149671521Y-108512109D01*
X149555407Y-108383152D01*
X149415027Y-108281159D01*
X149415022Y-108281156D01*
X149366750Y-108259664D01*
X149327764Y-108218581D01*
X149329247Y-108161963D01*
X149344520Y-108139739D01*
X151691488Y-105792770D01*
X151691491Y-105792769D01*
X151707489Y-105776772D01*
X151759815Y-105755098D01*
X151812141Y-105776772D01*
G37*
%TD.AperFunction*%
%TA.AperFunction,Conductor*%
G36*
X152461141Y-103065402D02*
G01*
X152727826Y-103332087D01*
X152749500Y-103384413D01*
X152749500Y-108159850D01*
X152727826Y-108212176D01*
X152705599Y-108227452D01*
X152584978Y-108281156D01*
X152584973Y-108281159D01*
X152444592Y-108383152D01*
X152328478Y-108512109D01*
X152328475Y-108512114D01*
X152241712Y-108662391D01*
X152230024Y-108698367D01*
X152193242Y-108741434D01*
X152159646Y-108749500D01*
X151840354Y-108749500D01*
X151788028Y-108727826D01*
X151769976Y-108698367D01*
X151758287Y-108662391D01*
X151671524Y-108512114D01*
X151671521Y-108512109D01*
X151555407Y-108383152D01*
X151415030Y-108281161D01*
X151415022Y-108281157D01*
X151294401Y-108227452D01*
X151255415Y-108186369D01*
X151250500Y-108159850D01*
X151250500Y-107844413D01*
X151272174Y-107792087D01*
X152296678Y-106767583D01*
X152296679Y-106767582D01*
X152334815Y-106675513D01*
X152334815Y-106575857D01*
X152334815Y-103117728D01*
X152356489Y-103065402D01*
X152408815Y-103043728D01*
X152461141Y-103065402D01*
G37*
%TD.AperFunction*%
%TA.AperFunction,Conductor*%
G36*
X153427626Y-101523898D02*
G01*
X153438839Y-101533101D01*
X153497825Y-101592086D01*
X153519500Y-101644411D01*
X153519500Y-105469829D01*
X153557634Y-105561894D01*
X153557636Y-105561897D01*
X154727826Y-106732086D01*
X154749500Y-106784412D01*
X154749500Y-108159850D01*
X154727826Y-108212176D01*
X154705599Y-108227452D01*
X154584978Y-108281156D01*
X154584973Y-108281159D01*
X154444592Y-108383152D01*
X154328478Y-108512109D01*
X154328475Y-108512114D01*
X154241712Y-108662391D01*
X154230024Y-108698367D01*
X154193242Y-108741434D01*
X154159646Y-108749500D01*
X153840354Y-108749500D01*
X153788028Y-108727826D01*
X153769976Y-108698367D01*
X153758287Y-108662391D01*
X153671524Y-108512114D01*
X153671521Y-108512109D01*
X153555407Y-108383152D01*
X153415030Y-108281161D01*
X153415022Y-108281157D01*
X153294401Y-108227452D01*
X153255415Y-108186369D01*
X153250500Y-108159850D01*
X153250500Y-103200172D01*
X153250499Y-103200170D01*
X153212365Y-103108105D01*
X153212363Y-103108102D01*
X152534760Y-102430499D01*
X152513086Y-102378173D01*
X152514506Y-102363746D01*
X152525500Y-102308480D01*
X152525500Y-101599500D01*
X152547174Y-101547174D01*
X152599500Y-101525500D01*
X153308478Y-101525500D01*
X153308480Y-101525500D01*
X153370609Y-101513142D01*
X153370611Y-101513140D01*
X153372077Y-101512849D01*
X153427626Y-101523898D01*
G37*
%TD.AperFunction*%
%TA.AperFunction,Conductor*%
G36*
X154146826Y-104691087D02*
G01*
X154668103Y-105212364D01*
X154760172Y-105250500D01*
X154859828Y-105250500D01*
X158159646Y-105250500D01*
X158211972Y-105272174D01*
X158230024Y-105301633D01*
X158241712Y-105337608D01*
X158328475Y-105487885D01*
X158328478Y-105487890D01*
X158444592Y-105616847D01*
X158546837Y-105691133D01*
X158576430Y-105739424D01*
X158563208Y-105794496D01*
X158514917Y-105824089D01*
X158503341Y-105825000D01*
X158277171Y-105825000D01*
X158217624Y-105831402D01*
X158217619Y-105831403D01*
X158082912Y-105881645D01*
X158082911Y-105881646D01*
X157967811Y-105967811D01*
X157881646Y-106082911D01*
X157881645Y-106082912D01*
X157831403Y-106217619D01*
X157831402Y-106217624D01*
X157825000Y-106277171D01*
X157825000Y-106750000D01*
X158675500Y-106750000D01*
X158681732Y-106752581D01*
X158679920Y-106754394D01*
X158627259Y-106845606D01*
X158600000Y-106947339D01*
X158600000Y-107052661D01*
X158627259Y-107154394D01*
X158679920Y-107245606D01*
X158681732Y-107247418D01*
X158675500Y-107250000D01*
X157825000Y-107250000D01*
X157825000Y-107722828D01*
X157831402Y-107782375D01*
X157831403Y-107782380D01*
X157881645Y-107917087D01*
X157881646Y-107917088D01*
X157967811Y-108032188D01*
X158082911Y-108118353D01*
X158082912Y-108118354D01*
X158217619Y-108168596D01*
X158217624Y-108168597D01*
X158277171Y-108175000D01*
X158626591Y-108175000D01*
X158678917Y-108196674D01*
X158700591Y-108249000D01*
X158697403Y-108270487D01*
X158694561Y-108279853D01*
X158689011Y-108293249D01*
X158626621Y-108409972D01*
X158618562Y-108422034D01*
X158534600Y-108524342D01*
X158524342Y-108534600D01*
X158422034Y-108618562D01*
X158409972Y-108626621D01*
X158293249Y-108689011D01*
X158279846Y-108694563D01*
X158218310Y-108713229D01*
X158161946Y-108707677D01*
X158126016Y-108663895D01*
X158125655Y-108662665D01*
X158100351Y-108573730D01*
X158100348Y-108573723D01*
X158003284Y-108378790D01*
X158003282Y-108378787D01*
X157872057Y-108205016D01*
X157872056Y-108205015D01*
X157711129Y-108058313D01*
X157525990Y-107943680D01*
X157525980Y-107943675D01*
X157322934Y-107865013D01*
X157250000Y-107851379D01*
X157250000Y-108675500D01*
X157247418Y-108681732D01*
X157245606Y-108679920D01*
X157154394Y-108627259D01*
X157052661Y-108600000D01*
X156947339Y-108600000D01*
X156845606Y-108627259D01*
X156754394Y-108679920D01*
X156752581Y-108681732D01*
X156750000Y-108675500D01*
X156750000Y-107851379D01*
X156749999Y-107851379D01*
X156677065Y-107865013D01*
X156474019Y-107943675D01*
X156474009Y-107943680D01*
X156288870Y-108058313D01*
X156288869Y-108058313D01*
X156127943Y-108205015D01*
X156127942Y-108205016D01*
X155996717Y-108378787D01*
X155996715Y-108378790D01*
X155899651Y-108573723D01*
X155899650Y-108573725D01*
X155883928Y-108628981D01*
X155848761Y-108673377D01*
X155792501Y-108679904D01*
X155748667Y-108645729D01*
X155738997Y-108628981D01*
X155671522Y-108512111D01*
X155671521Y-108512109D01*
X155555407Y-108383152D01*
X155415030Y-108281161D01*
X155415022Y-108281157D01*
X155294401Y-108227452D01*
X155255415Y-108186369D01*
X155250500Y-108159850D01*
X155250500Y-106708448D01*
X155250501Y-106708439D01*
X155250501Y-106600173D01*
X155212364Y-106508104D01*
X155212363Y-106508102D01*
X155137682Y-106433421D01*
X155137675Y-106433415D01*
X154042174Y-105337913D01*
X154020500Y-105285587D01*
X154020500Y-104743413D01*
X154042174Y-104691087D01*
X154094500Y-104669413D01*
X154146826Y-104691087D01*
G37*
%TD.AperFunction*%
%TA.AperFunction,Conductor*%
G36*
X150478326Y-103951674D02*
G01*
X150500000Y-104004000D01*
X150500000Y-104958789D01*
X150500001Y-104958790D01*
X150520910Y-104957145D01*
X150520912Y-104957145D01*
X150676193Y-104912032D01*
X150767830Y-104857838D01*
X150823903Y-104849858D01*
X150869195Y-104883863D01*
X150879500Y-104921533D01*
X150879500Y-105055587D01*
X150857826Y-105107913D01*
X149647913Y-106317826D01*
X149595587Y-106339500D01*
X148883413Y-106339500D01*
X148831087Y-106317826D01*
X148809413Y-106265500D01*
X148831087Y-106213174D01*
X149432363Y-105611898D01*
X149432364Y-105611897D01*
X149470500Y-105519828D01*
X149470500Y-105420172D01*
X149470500Y-104794249D01*
X149492174Y-104741923D01*
X149544500Y-104720249D01*
X149596826Y-104741923D01*
X149684622Y-104829719D01*
X149823803Y-104912031D01*
X149979088Y-104957145D01*
X149999998Y-104958790D01*
X150000000Y-104958789D01*
X150000000Y-104004000D01*
X150021674Y-103951674D01*
X150074000Y-103930000D01*
X150426000Y-103930000D01*
X150478326Y-103951674D01*
G37*
%TD.AperFunction*%
%TA.AperFunction,Conductor*%
G36*
X154576826Y-101501087D02*
G01*
X154668102Y-101592363D01*
X154668105Y-101592365D01*
X154685331Y-101599500D01*
X154760172Y-101630500D01*
X154955587Y-101630500D01*
X155007913Y-101652174D01*
X155014841Y-101659102D01*
X155036515Y-101711428D01*
X155014841Y-101763754D01*
X154995016Y-101777909D01*
X154918788Y-101815174D01*
X154830173Y-101903789D01*
X154775134Y-102016373D01*
X154775134Y-102016374D01*
X154764500Y-102089359D01*
X154764500Y-102660640D01*
X154775134Y-102733625D01*
X154775134Y-102733626D01*
X154830173Y-102846210D01*
X154830174Y-102846211D01*
X154918789Y-102934826D01*
X155031375Y-102989866D01*
X155080452Y-102997016D01*
X155129106Y-103026008D01*
X155138150Y-103041925D01*
X155152634Y-103076894D01*
X155152635Y-103076896D01*
X155152636Y-103076897D01*
X155607636Y-103531897D01*
X155678103Y-103602364D01*
X155770172Y-103640500D01*
X155770173Y-103640500D01*
X157709827Y-103640500D01*
X157709828Y-103640500D01*
X157801897Y-103602364D01*
X158113394Y-103290866D01*
X158165719Y-103269193D01*
X158218045Y-103290867D01*
X158236097Y-103320324D01*
X158241714Y-103337611D01*
X158278023Y-103400500D01*
X158328475Y-103487885D01*
X158328478Y-103487890D01*
X158444592Y-103616847D01*
X158584969Y-103718838D01*
X158584971Y-103718838D01*
X158584976Y-103718842D01*
X158705600Y-103772547D01*
X158744585Y-103813628D01*
X158749500Y-103840148D01*
X158749500Y-104159850D01*
X158727826Y-104212176D01*
X158705599Y-104227452D01*
X158584978Y-104281156D01*
X158584973Y-104281159D01*
X158444592Y-104383152D01*
X158328478Y-104512109D01*
X158328475Y-104512114D01*
X158241712Y-104662391D01*
X158230024Y-104698367D01*
X158193242Y-104741434D01*
X158159646Y-104749500D01*
X154944413Y-104749500D01*
X154892087Y-104727826D01*
X154472174Y-104307913D01*
X154450500Y-104255587D01*
X154450500Y-101553413D01*
X154472174Y-101501087D01*
X154524500Y-101479413D01*
X154576826Y-101501087D01*
G37*
%TD.AperFunction*%
%TA.AperFunction,Conductor*%
G36*
X146518326Y-101326674D02*
G01*
X146540000Y-101379000D01*
X146540000Y-102504999D01*
X146541796Y-102506795D01*
X146589786Y-102526673D01*
X146611460Y-102578999D01*
X146593386Y-102627458D01*
X146527120Y-102703932D01*
X146527119Y-102703934D01*
X146473302Y-102821776D01*
X146454867Y-102950000D01*
X146473302Y-103078223D01*
X146473302Y-103078224D01*
X146473303Y-103078226D01*
X146527118Y-103196063D01*
X146611951Y-103293967D01*
X146720931Y-103364004D01*
X146845228Y-103400500D01*
X146974772Y-103400500D01*
X147099069Y-103364004D01*
X147208049Y-103293967D01*
X147208049Y-103293966D01*
X147212502Y-103291105D01*
X147213517Y-103292685D01*
X147260775Y-103276954D01*
X147311423Y-103302303D01*
X147329500Y-103350766D01*
X147329500Y-103715587D01*
X147307826Y-103767913D01*
X147257913Y-103817826D01*
X147205587Y-103839500D01*
X145564457Y-103839500D01*
X145512131Y-103817826D01*
X145490457Y-103765500D01*
X145512131Y-103713174D01*
X145572573Y-103652731D01*
X145661547Y-103508482D01*
X145714855Y-103347608D01*
X145724999Y-103248311D01*
X145725000Y-103248309D01*
X145725000Y-103200000D01*
X144599000Y-103200000D01*
X144546674Y-103178326D01*
X144525000Y-103126000D01*
X144525000Y-102774000D01*
X144546674Y-102721674D01*
X144599000Y-102700000D01*
X145724999Y-102700000D01*
X145724999Y-102651693D01*
X145724998Y-102651687D01*
X145714445Y-102548374D01*
X145716076Y-102548207D01*
X145725343Y-102497824D01*
X145771974Y-102465679D01*
X145810737Y-102467797D01*
X145892392Y-102494855D01*
X145991689Y-102504999D01*
X146039999Y-102504998D01*
X146040000Y-102504998D01*
X146040000Y-101379000D01*
X146061674Y-101326674D01*
X146114000Y-101305000D01*
X146466000Y-101305000D01*
X146518326Y-101326674D01*
G37*
%TD.AperFunction*%
%TA.AperFunction,Conductor*%
G36*
X158225541Y-101313370D02*
G01*
X158240816Y-101335594D01*
X158241713Y-101337609D01*
X158328475Y-101487885D01*
X158328478Y-101487890D01*
X158444592Y-101616847D01*
X158584969Y-101718838D01*
X158584971Y-101718838D01*
X158584976Y-101718842D01*
X158705600Y-101772547D01*
X158744585Y-101813628D01*
X158749500Y-101840148D01*
X158749500Y-102159850D01*
X158727826Y-102212176D01*
X158705599Y-102227452D01*
X158584978Y-102281156D01*
X158584973Y-102281159D01*
X158444592Y-102383152D01*
X158328478Y-102512109D01*
X158328475Y-102512114D01*
X158241712Y-102662391D01*
X158230024Y-102698367D01*
X158193242Y-102741434D01*
X158159646Y-102749500D01*
X158099827Y-102749500D01*
X158000172Y-102749500D01*
X157979407Y-102758101D01*
X157965433Y-102763889D01*
X157908796Y-102763888D01*
X157868748Y-102723838D01*
X157863499Y-102687999D01*
X157865000Y-102673309D01*
X157865000Y-102625000D01*
X156739000Y-102625000D01*
X156686674Y-102603326D01*
X156665000Y-102551000D01*
X156665000Y-101614500D01*
X156686674Y-101562174D01*
X156739000Y-101540500D01*
X157091000Y-101540500D01*
X157143326Y-101562174D01*
X157165000Y-101614500D01*
X157165000Y-102125000D01*
X157864999Y-102125000D01*
X157864999Y-102076693D01*
X157864998Y-102076687D01*
X157854855Y-101977391D01*
X157801547Y-101816517D01*
X157712573Y-101672268D01*
X157707131Y-101666826D01*
X157685457Y-101614500D01*
X157707131Y-101562174D01*
X157759457Y-101540500D01*
X157839827Y-101540500D01*
X157839828Y-101540500D01*
X157931897Y-101502364D01*
X158120891Y-101313369D01*
X158173215Y-101291696D01*
X158225541Y-101313370D01*
G37*
%TD.AperFunction*%
%TA.AperFunction,Conductor*%
G36*
X152041110Y-97545859D02*
G01*
X152104391Y-97588142D01*
X152166520Y-97600500D01*
X152166521Y-97600500D01*
X152325500Y-97600500D01*
X152377826Y-97622174D01*
X152399500Y-97674500D01*
X152399500Y-97833480D01*
X152400826Y-97840148D01*
X152411857Y-97895608D01*
X152454139Y-97958888D01*
X152465188Y-98014437D01*
X152454139Y-98041112D01*
X152411857Y-98104391D01*
X152399500Y-98166520D01*
X152399500Y-98333479D01*
X152411857Y-98395608D01*
X152454139Y-98458888D01*
X152465188Y-98514437D01*
X152454139Y-98541112D01*
X152411857Y-98604391D01*
X152399500Y-98666520D01*
X152399500Y-98833479D01*
X152411857Y-98895608D01*
X152454139Y-98958888D01*
X152465188Y-99014437D01*
X152454139Y-99041112D01*
X152411857Y-99104391D01*
X152401445Y-99156740D01*
X152399500Y-99166520D01*
X152399500Y-99333480D01*
X152400603Y-99339023D01*
X152411857Y-99395608D01*
X152454139Y-99458888D01*
X152465188Y-99514437D01*
X152454139Y-99541112D01*
X152411857Y-99604391D01*
X152399500Y-99666520D01*
X152399500Y-99833479D01*
X152411857Y-99895608D01*
X152454139Y-99958888D01*
X152465188Y-100014437D01*
X152454139Y-100041112D01*
X152411857Y-100104391D01*
X152400827Y-100159850D01*
X152399500Y-100166520D01*
X152399500Y-100333480D01*
X152400524Y-100338626D01*
X152411857Y-100395608D01*
X152454139Y-100458888D01*
X152465188Y-100514437D01*
X152454139Y-100541112D01*
X152411857Y-100604391D01*
X152399500Y-100666520D01*
X152399500Y-100833479D01*
X152411857Y-100895608D01*
X152454139Y-100958888D01*
X152465188Y-101014437D01*
X152454139Y-101041112D01*
X152411857Y-101104391D01*
X152399500Y-101166520D01*
X152399500Y-101325500D01*
X152377826Y-101377826D01*
X152325500Y-101399500D01*
X152166520Y-101399500D01*
X152156213Y-101401550D01*
X152104391Y-101411857D01*
X152041112Y-101454139D01*
X151985563Y-101465188D01*
X151958888Y-101454139D01*
X151895608Y-101411857D01*
X151845837Y-101401957D01*
X151833480Y-101399500D01*
X151666520Y-101399500D01*
X151656213Y-101401550D01*
X151604391Y-101411857D01*
X151541112Y-101454139D01*
X151485563Y-101465188D01*
X151458888Y-101454139D01*
X151395608Y-101411857D01*
X151345837Y-101401957D01*
X151333480Y-101399500D01*
X151166520Y-101399500D01*
X151156213Y-101401550D01*
X151104391Y-101411857D01*
X151041112Y-101454139D01*
X150985563Y-101465188D01*
X150958888Y-101454139D01*
X150895608Y-101411857D01*
X150845837Y-101401957D01*
X150833480Y-101399500D01*
X150666520Y-101399500D01*
X150656213Y-101401550D01*
X150604391Y-101411857D01*
X150541112Y-101454139D01*
X150485563Y-101465188D01*
X150458888Y-101454139D01*
X150395608Y-101411857D01*
X150345837Y-101401957D01*
X150333480Y-101399500D01*
X150166520Y-101399500D01*
X150156213Y-101401550D01*
X150104391Y-101411857D01*
X150041112Y-101454139D01*
X149985563Y-101465188D01*
X149958888Y-101454139D01*
X149895608Y-101411857D01*
X149845837Y-101401957D01*
X149833480Y-101399500D01*
X149666520Y-101399500D01*
X149656213Y-101401550D01*
X149604391Y-101411857D01*
X149541112Y-101454139D01*
X149485563Y-101465188D01*
X149458888Y-101454139D01*
X149395608Y-101411857D01*
X149345837Y-101401957D01*
X149333480Y-101399500D01*
X149166520Y-101399500D01*
X149156213Y-101401550D01*
X149104391Y-101411857D01*
X149041112Y-101454139D01*
X148985563Y-101465188D01*
X148958888Y-101454139D01*
X148895608Y-101411857D01*
X148845837Y-101401957D01*
X148833480Y-101399500D01*
X148674500Y-101399500D01*
X148622174Y-101377826D01*
X148600500Y-101325500D01*
X148600500Y-101180266D01*
X149173285Y-101180266D01*
X149173285Y-101180267D01*
X149332045Y-101235820D01*
X149332052Y-101235822D01*
X149500000Y-101254745D01*
X149667947Y-101235822D01*
X149667954Y-101235820D01*
X149826713Y-101180267D01*
X149826712Y-101180266D01*
X150173285Y-101180266D01*
X150173285Y-101180267D01*
X150332045Y-101235820D01*
X150332052Y-101235822D01*
X150500000Y-101254745D01*
X150667947Y-101235822D01*
X150667954Y-101235820D01*
X150826713Y-101180267D01*
X150826712Y-101180266D01*
X151173285Y-101180266D01*
X151173285Y-101180267D01*
X151332045Y-101235820D01*
X151332052Y-101235822D01*
X151500000Y-101254745D01*
X151667947Y-101235822D01*
X151667954Y-101235820D01*
X151826713Y-101180267D01*
X151500000Y-100853553D01*
X151173285Y-101180266D01*
X150826712Y-101180266D01*
X150500000Y-100853553D01*
X150173285Y-101180266D01*
X149826712Y-101180266D01*
X149500000Y-100853553D01*
X149173285Y-101180266D01*
X148600500Y-101180266D01*
X148600500Y-101166520D01*
X148588142Y-101104391D01*
X148545859Y-101041110D01*
X148534811Y-100985563D01*
X148545860Y-100958888D01*
X148588142Y-100895609D01*
X148592862Y-100871878D01*
X148624325Y-100824789D01*
X148637122Y-100817948D01*
X148671178Y-100803842D01*
X148700853Y-100781071D01*
X148755560Y-100766411D01*
X148804610Y-100794728D01*
X148815750Y-100815336D01*
X148819731Y-100826713D01*
X149146446Y-100499999D01*
X149126556Y-100480109D01*
X149400000Y-100480109D01*
X149400000Y-100519891D01*
X149415224Y-100556645D01*
X149443355Y-100584776D01*
X149480109Y-100600000D01*
X149519891Y-100600000D01*
X149556645Y-100584776D01*
X149584776Y-100556645D01*
X149600000Y-100519891D01*
X149600000Y-100500000D01*
X149853553Y-100500000D01*
X150000000Y-100646447D01*
X150146447Y-100500000D01*
X150126556Y-100480109D01*
X150400000Y-100480109D01*
X150400000Y-100519891D01*
X150415224Y-100556645D01*
X150443355Y-100584776D01*
X150480109Y-100600000D01*
X150519891Y-100600000D01*
X150556645Y-100584776D01*
X150584776Y-100556645D01*
X150600000Y-100519891D01*
X150600000Y-100500000D01*
X150853553Y-100500000D01*
X151000000Y-100646447D01*
X151146447Y-100500000D01*
X151126556Y-100480109D01*
X151400000Y-100480109D01*
X151400000Y-100519891D01*
X151415224Y-100556645D01*
X151443355Y-100584776D01*
X151480109Y-100600000D01*
X151519891Y-100600000D01*
X151556645Y-100584776D01*
X151584776Y-100556645D01*
X151600000Y-100519891D01*
X151600000Y-100499999D01*
X151853552Y-100499999D01*
X152180267Y-100826713D01*
X152235820Y-100667954D01*
X152235822Y-100667947D01*
X152254745Y-100500000D01*
X152235822Y-100332052D01*
X152235820Y-100332045D01*
X152180267Y-100173285D01*
X152180266Y-100173285D01*
X151853552Y-100499999D01*
X151600000Y-100499999D01*
X151600000Y-100480109D01*
X151584776Y-100443355D01*
X151556645Y-100415224D01*
X151519891Y-100400000D01*
X151480109Y-100400000D01*
X151443355Y-100415224D01*
X151415224Y-100443355D01*
X151400000Y-100480109D01*
X151126556Y-100480109D01*
X151000000Y-100353553D01*
X150853553Y-100500000D01*
X150600000Y-100500000D01*
X150600000Y-100480109D01*
X150584776Y-100443355D01*
X150556645Y-100415224D01*
X150519891Y-100400000D01*
X150480109Y-100400000D01*
X150443355Y-100415224D01*
X150415224Y-100443355D01*
X150400000Y-100480109D01*
X150126556Y-100480109D01*
X150000000Y-100353553D01*
X149853553Y-100500000D01*
X149600000Y-100500000D01*
X149600000Y-100480109D01*
X149584776Y-100443355D01*
X149556645Y-100415224D01*
X149519891Y-100400000D01*
X149480109Y-100400000D01*
X149443355Y-100415224D01*
X149415224Y-100443355D01*
X149400000Y-100480109D01*
X149126556Y-100480109D01*
X148814813Y-100168366D01*
X148793139Y-100116040D01*
X148814813Y-100063714D01*
X148878526Y-100000000D01*
X149353553Y-100000000D01*
X149500000Y-100146447D01*
X149646447Y-100000000D01*
X150353553Y-100000000D01*
X150500000Y-100146447D01*
X150646447Y-100000000D01*
X151353553Y-100000000D01*
X151500000Y-100146447D01*
X151646447Y-100000000D01*
X151500000Y-99853553D01*
X151353553Y-100000000D01*
X150646447Y-100000000D01*
X150500000Y-99853553D01*
X150353553Y-100000000D01*
X149646447Y-100000000D01*
X149500000Y-99853553D01*
X149353553Y-100000000D01*
X148878526Y-100000000D01*
X148878527Y-99999999D01*
X148814812Y-99936284D01*
X148793138Y-99883958D01*
X148814812Y-99831632D01*
X148839393Y-99807051D01*
X149146446Y-99499999D01*
X149126556Y-99480109D01*
X149400000Y-99480109D01*
X149400000Y-99519891D01*
X149415224Y-99556645D01*
X149443355Y-99584776D01*
X149480109Y-99600000D01*
X149519891Y-99600000D01*
X149556645Y-99584776D01*
X149584776Y-99556645D01*
X149600000Y-99519891D01*
X149600000Y-99500000D01*
X149853553Y-99500000D01*
X150000000Y-99646447D01*
X150146447Y-99500000D01*
X150126556Y-99480109D01*
X150400000Y-99480109D01*
X150400000Y-99519891D01*
X150415224Y-99556645D01*
X150443355Y-99584776D01*
X150480109Y-99600000D01*
X150519891Y-99600000D01*
X150556645Y-99584776D01*
X150584776Y-99556645D01*
X150600000Y-99519891D01*
X150600000Y-99500000D01*
X150853553Y-99500000D01*
X151000000Y-99646447D01*
X151146447Y-99500000D01*
X151126556Y-99480109D01*
X151400000Y-99480109D01*
X151400000Y-99519891D01*
X151415224Y-99556645D01*
X151443355Y-99584776D01*
X151480109Y-99600000D01*
X151519891Y-99600000D01*
X151556645Y-99584776D01*
X151584776Y-99556645D01*
X151600000Y-99519891D01*
X151600000Y-99499999D01*
X151853553Y-99499999D01*
X152180267Y-99826713D01*
X152235820Y-99667954D01*
X152235822Y-99667947D01*
X152254745Y-99500000D01*
X152235822Y-99332052D01*
X152235820Y-99332045D01*
X152180267Y-99173285D01*
X152180266Y-99173285D01*
X151853553Y-99499999D01*
X151600000Y-99499999D01*
X151600000Y-99480109D01*
X151584776Y-99443355D01*
X151556645Y-99415224D01*
X151519891Y-99400000D01*
X151480109Y-99400000D01*
X151443355Y-99415224D01*
X151415224Y-99443355D01*
X151400000Y-99480109D01*
X151126556Y-99480109D01*
X151000000Y-99353553D01*
X150853553Y-99500000D01*
X150600000Y-99500000D01*
X150600000Y-99480109D01*
X150584776Y-99443355D01*
X150556645Y-99415224D01*
X150519891Y-99400000D01*
X150480109Y-99400000D01*
X150443355Y-99415224D01*
X150415224Y-99443355D01*
X150400000Y-99480109D01*
X150126556Y-99480109D01*
X150000000Y-99353553D01*
X149853553Y-99500000D01*
X149600000Y-99500000D01*
X149600000Y-99480109D01*
X149584776Y-99443355D01*
X149556645Y-99415224D01*
X149519891Y-99400000D01*
X149480109Y-99400000D01*
X149443355Y-99415224D01*
X149415224Y-99443355D01*
X149400000Y-99480109D01*
X149126556Y-99480109D01*
X148819731Y-99173285D01*
X148819730Y-99173285D01*
X148764180Y-99332041D01*
X148764177Y-99332052D01*
X148745254Y-99500000D01*
X148758018Y-99613286D01*
X148742338Y-99667709D01*
X148692768Y-99695106D01*
X148656165Y-99689938D01*
X148637121Y-99682050D01*
X148597072Y-99642002D01*
X148592862Y-99628122D01*
X148588142Y-99604391D01*
X148545859Y-99541110D01*
X148534811Y-99485563D01*
X148545860Y-99458888D01*
X148556239Y-99443355D01*
X148588142Y-99395609D01*
X148600500Y-99333480D01*
X148600500Y-99166520D01*
X148588142Y-99104391D01*
X148545859Y-99041110D01*
X148537682Y-99000000D01*
X149353553Y-99000000D01*
X149500000Y-99146447D01*
X149646447Y-99000000D01*
X150353553Y-99000000D01*
X150500000Y-99146447D01*
X150646447Y-99000000D01*
X151353553Y-99000000D01*
X151500000Y-99146447D01*
X151646447Y-99000000D01*
X151500000Y-98853553D01*
X151353553Y-99000000D01*
X150646447Y-99000000D01*
X150500000Y-98853553D01*
X150353553Y-99000000D01*
X149646447Y-99000000D01*
X149500000Y-98853553D01*
X149353553Y-99000000D01*
X148537682Y-99000000D01*
X148534811Y-98985563D01*
X148545860Y-98958888D01*
X148588142Y-98895609D01*
X148592862Y-98871878D01*
X148624325Y-98824789D01*
X148637122Y-98817948D01*
X148671178Y-98803842D01*
X148700853Y-98781071D01*
X148755560Y-98766411D01*
X148804610Y-98794728D01*
X148815750Y-98815336D01*
X148819731Y-98826713D01*
X149146446Y-98499999D01*
X149126556Y-98480109D01*
X149400000Y-98480109D01*
X149400000Y-98519891D01*
X149415224Y-98556645D01*
X149443355Y-98584776D01*
X149480109Y-98600000D01*
X149519891Y-98600000D01*
X149556645Y-98584776D01*
X149584776Y-98556645D01*
X149600000Y-98519891D01*
X149600000Y-98500000D01*
X149853553Y-98500000D01*
X150000000Y-98646447D01*
X150146447Y-98500000D01*
X150126556Y-98480109D01*
X150400000Y-98480109D01*
X150400000Y-98519891D01*
X150415224Y-98556645D01*
X150443355Y-98584776D01*
X150480109Y-98600000D01*
X150519891Y-98600000D01*
X150556645Y-98584776D01*
X150584776Y-98556645D01*
X150600000Y-98519891D01*
X150600000Y-98500000D01*
X150853553Y-98500000D01*
X151000000Y-98646447D01*
X151146447Y-98500000D01*
X151126556Y-98480109D01*
X151400000Y-98480109D01*
X151400000Y-98519891D01*
X151415224Y-98556645D01*
X151443355Y-98584776D01*
X151480109Y-98600000D01*
X151519891Y-98600000D01*
X151556645Y-98584776D01*
X151584776Y-98556645D01*
X151600000Y-98519891D01*
X151600000Y-98499999D01*
X151853552Y-98499999D01*
X152180267Y-98826713D01*
X152235820Y-98667954D01*
X152235822Y-98667947D01*
X152254745Y-98500000D01*
X152235822Y-98332052D01*
X152235820Y-98332045D01*
X152180267Y-98173285D01*
X152180266Y-98173285D01*
X151853552Y-98499999D01*
X151600000Y-98499999D01*
X151600000Y-98480109D01*
X151584776Y-98443355D01*
X151556645Y-98415224D01*
X151519891Y-98400000D01*
X151480109Y-98400000D01*
X151443355Y-98415224D01*
X151415224Y-98443355D01*
X151400000Y-98480109D01*
X151126556Y-98480109D01*
X151000000Y-98353553D01*
X150853553Y-98500000D01*
X150600000Y-98500000D01*
X150600000Y-98480109D01*
X150584776Y-98443355D01*
X150556645Y-98415224D01*
X150519891Y-98400000D01*
X150480109Y-98400000D01*
X150443355Y-98415224D01*
X150415224Y-98443355D01*
X150400000Y-98480109D01*
X150126556Y-98480109D01*
X150000000Y-98353553D01*
X149853553Y-98500000D01*
X149600000Y-98500000D01*
X149600000Y-98480109D01*
X149584776Y-98443355D01*
X149556645Y-98415224D01*
X149519891Y-98400000D01*
X149480109Y-98400000D01*
X149443355Y-98415224D01*
X149415224Y-98443355D01*
X149400000Y-98480109D01*
X149126556Y-98480109D01*
X148814813Y-98168366D01*
X148793139Y-98116040D01*
X148814813Y-98063714D01*
X148906919Y-97971608D01*
X148878843Y-97903824D01*
X148878841Y-97903820D01*
X148814317Y-97819730D01*
X149173285Y-97819730D01*
X149173285Y-97819731D01*
X149499999Y-98146446D01*
X149826713Y-97819731D01*
X149826710Y-97819730D01*
X150173285Y-97819730D01*
X150173285Y-97819731D01*
X150499999Y-98146446D01*
X150826713Y-97819731D01*
X150826710Y-97819730D01*
X151173285Y-97819730D01*
X151173285Y-97819731D01*
X151499999Y-98146446D01*
X151826713Y-97819731D01*
X151667955Y-97764179D01*
X151667947Y-97764177D01*
X151500000Y-97745254D01*
X151332052Y-97764177D01*
X151332041Y-97764180D01*
X151173285Y-97819730D01*
X150826710Y-97819730D01*
X150667955Y-97764179D01*
X150667947Y-97764177D01*
X150500000Y-97745254D01*
X150332052Y-97764177D01*
X150332041Y-97764180D01*
X150173285Y-97819730D01*
X149826710Y-97819730D01*
X149667955Y-97764179D01*
X149667947Y-97764177D01*
X149500000Y-97745254D01*
X149332052Y-97764177D01*
X149332041Y-97764180D01*
X149173285Y-97819730D01*
X148814317Y-97819730D01*
X148788682Y-97786322D01*
X148788677Y-97786317D01*
X148719464Y-97733208D01*
X148691145Y-97684159D01*
X148705804Y-97629452D01*
X148754853Y-97601133D01*
X148764512Y-97600500D01*
X148833479Y-97600500D01*
X148833480Y-97600500D01*
X148895609Y-97588142D01*
X148958889Y-97545859D01*
X149014437Y-97534811D01*
X149041110Y-97545859D01*
X149104391Y-97588142D01*
X149166520Y-97600500D01*
X149166521Y-97600500D01*
X149333479Y-97600500D01*
X149333480Y-97600500D01*
X149395609Y-97588142D01*
X149458889Y-97545859D01*
X149514437Y-97534811D01*
X149541110Y-97545859D01*
X149604391Y-97588142D01*
X149666520Y-97600500D01*
X149666521Y-97600500D01*
X149833479Y-97600500D01*
X149833480Y-97600500D01*
X149895609Y-97588142D01*
X149958889Y-97545859D01*
X150014437Y-97534811D01*
X150041110Y-97545859D01*
X150104391Y-97588142D01*
X150166520Y-97600500D01*
X150166521Y-97600500D01*
X150333479Y-97600500D01*
X150333480Y-97600500D01*
X150395609Y-97588142D01*
X150458889Y-97545859D01*
X150514437Y-97534811D01*
X150541110Y-97545859D01*
X150604391Y-97588142D01*
X150666520Y-97600500D01*
X150666521Y-97600500D01*
X150833479Y-97600500D01*
X150833480Y-97600500D01*
X150895609Y-97588142D01*
X150958889Y-97545859D01*
X151014437Y-97534811D01*
X151041110Y-97545859D01*
X151104391Y-97588142D01*
X151166520Y-97600500D01*
X151166521Y-97600500D01*
X151333479Y-97600500D01*
X151333480Y-97600500D01*
X151395609Y-97588142D01*
X151458889Y-97545859D01*
X151514437Y-97534811D01*
X151541110Y-97545859D01*
X151604391Y-97588142D01*
X151666520Y-97600500D01*
X151666521Y-97600500D01*
X151833479Y-97600500D01*
X151833480Y-97600500D01*
X151895609Y-97588142D01*
X151958889Y-97545859D01*
X152014437Y-97534811D01*
X152041110Y-97545859D01*
G37*
%TD.AperFunction*%
%TA.AperFunction,Conductor*%
G36*
X142787913Y-93272174D02*
G01*
X143897826Y-94382086D01*
X143919500Y-94434412D01*
X143919500Y-96395500D01*
X143897826Y-96447826D01*
X143845500Y-96469500D01*
X143105180Y-96469500D01*
X143083229Y-96473866D01*
X143061277Y-96478233D01*
X143011496Y-96511495D01*
X143011495Y-96511496D01*
X142978233Y-96561277D01*
X142969500Y-96605180D01*
X142969500Y-97734819D01*
X142978233Y-97778723D01*
X143011752Y-97828889D01*
X143022801Y-97884438D01*
X143011752Y-97911111D01*
X142978233Y-97961276D01*
X142969500Y-98005180D01*
X142969500Y-99134819D01*
X142978233Y-99178722D01*
X143011365Y-99228309D01*
X143011496Y-99228504D01*
X143061278Y-99261767D01*
X143105180Y-99270500D01*
X143105181Y-99270500D01*
X145234819Y-99270500D01*
X145234820Y-99270500D01*
X145278722Y-99261767D01*
X145328504Y-99228504D01*
X145361767Y-99178722D01*
X145370500Y-99134820D01*
X145370500Y-98894500D01*
X145392174Y-98842174D01*
X145444500Y-98820500D01*
X145469827Y-98820500D01*
X145469828Y-98820500D01*
X145559379Y-98783407D01*
X145568631Y-98779575D01*
X145570218Y-98783407D01*
X145611628Y-98775104D01*
X145658769Y-98806497D01*
X145670531Y-98837033D01*
X145675134Y-98868626D01*
X145730173Y-98981210D01*
X145730174Y-98981211D01*
X145818789Y-99069826D01*
X145931375Y-99124866D01*
X145951169Y-99127749D01*
X145999822Y-99156740D01*
X146014500Y-99200976D01*
X146014500Y-99339023D01*
X145992826Y-99391349D01*
X145951170Y-99412250D01*
X145931374Y-99415134D01*
X145931373Y-99415134D01*
X145818789Y-99470173D01*
X145730173Y-99558789D01*
X145675134Y-99671373D01*
X145675134Y-99671374D01*
X145664500Y-99744359D01*
X145664500Y-100265640D01*
X145675134Y-100338625D01*
X145675134Y-100338626D01*
X145716382Y-100423000D01*
X145719891Y-100479528D01*
X145682401Y-100521981D01*
X145649901Y-100529500D01*
X145444500Y-100529500D01*
X145392174Y-100507826D01*
X145370500Y-100455500D01*
X145370500Y-99715180D01*
X145366507Y-99695106D01*
X145361767Y-99671278D01*
X145328504Y-99621496D01*
X145321546Y-99616847D01*
X145278722Y-99588233D01*
X145261343Y-99584776D01*
X145234820Y-99579500D01*
X144105180Y-99579500D01*
X144090546Y-99582411D01*
X144061276Y-99588233D01*
X144011111Y-99621752D01*
X143955562Y-99632801D01*
X143928889Y-99621752D01*
X143878723Y-99588233D01*
X143856771Y-99583866D01*
X143834820Y-99579500D01*
X142705180Y-99579500D01*
X142683229Y-99583866D01*
X142661277Y-99588233D01*
X142611496Y-99621495D01*
X142611495Y-99621496D01*
X142578233Y-99671277D01*
X142569500Y-99715180D01*
X142569500Y-101136587D01*
X142547826Y-101188913D01*
X142495500Y-101210587D01*
X142443174Y-101188913D01*
X142041898Y-100787637D01*
X142041894Y-100787634D01*
X141949828Y-100749500D01*
X141840354Y-100749500D01*
X141788028Y-100727826D01*
X141769976Y-100698367D01*
X141758287Y-100662391D01*
X141671524Y-100512114D01*
X141671521Y-100512109D01*
X141570577Y-100400000D01*
X141555410Y-100383155D01*
X141555409Y-100383154D01*
X141555407Y-100383152D01*
X141415030Y-100281161D01*
X141415022Y-100281157D01*
X141294401Y-100227452D01*
X141255415Y-100186369D01*
X141250500Y-100159850D01*
X141250500Y-99840148D01*
X141272174Y-99787822D01*
X141294395Y-99772549D01*
X141415024Y-99718842D01*
X141415059Y-99718817D01*
X141515239Y-99646031D01*
X141555410Y-99616845D01*
X141671522Y-99487889D01*
X141758286Y-99337611D01*
X141763652Y-99321094D01*
X141800431Y-99278028D01*
X141856893Y-99273580D01*
X141889956Y-99295501D01*
X141931947Y-99343963D01*
X141931948Y-99343964D01*
X141931951Y-99343967D01*
X142040931Y-99414004D01*
X142165228Y-99450500D01*
X142294772Y-99450500D01*
X142419069Y-99414004D01*
X142528049Y-99343967D01*
X142612882Y-99246063D01*
X142666697Y-99128226D01*
X142685133Y-99000000D01*
X142666697Y-98871774D01*
X142612882Y-98753937D01*
X142528049Y-98656033D01*
X142440860Y-98600000D01*
X142419068Y-98585995D01*
X142294772Y-98549500D01*
X142165228Y-98549500D01*
X142040931Y-98585995D01*
X141931954Y-98656031D01*
X141931950Y-98656034D01*
X141889956Y-98704499D01*
X141839309Y-98729850D01*
X141785570Y-98711965D01*
X141763652Y-98678904D01*
X141758286Y-98662389D01*
X141671522Y-98512111D01*
X141671521Y-98512109D01*
X141570577Y-98400000D01*
X141555410Y-98383155D01*
X141555409Y-98383154D01*
X141555407Y-98383152D01*
X141415030Y-98281161D01*
X141415019Y-98281155D01*
X141359121Y-98256268D01*
X141320134Y-98215185D01*
X141321617Y-98158568D01*
X141362487Y-98119663D01*
X141525980Y-98056324D01*
X141525990Y-98056319D01*
X141711129Y-97941686D01*
X141711130Y-97941686D01*
X141872056Y-97794984D01*
X141872057Y-97794983D01*
X142003282Y-97621212D01*
X142003284Y-97621209D01*
X142100348Y-97426276D01*
X142100350Y-97426271D01*
X142150505Y-97250000D01*
X141324500Y-97250000D01*
X141318267Y-97247418D01*
X141320080Y-97245606D01*
X141372741Y-97154394D01*
X141400000Y-97052661D01*
X141400000Y-96947339D01*
X141372741Y-96845606D01*
X141320080Y-96754394D01*
X141318267Y-96752581D01*
X141324500Y-96750000D01*
X142150505Y-96750000D01*
X142100350Y-96573728D01*
X142100348Y-96573723D01*
X142003284Y-96378790D01*
X142003282Y-96378787D01*
X141872057Y-96205016D01*
X141872056Y-96205015D01*
X141711129Y-96058313D01*
X141525990Y-95943680D01*
X141525980Y-95943675D01*
X141362487Y-95880336D01*
X141321524Y-95841223D01*
X141320216Y-95784601D01*
X141359118Y-95743732D01*
X141415024Y-95718842D01*
X141434803Y-95704472D01*
X141543767Y-95625304D01*
X141555410Y-95616845D01*
X141671522Y-95487889D01*
X141758286Y-95337611D01*
X141811908Y-95172576D01*
X141830047Y-95000000D01*
X141811908Y-94827424D01*
X141790130Y-94760397D01*
X141758288Y-94662394D01*
X141758286Y-94662391D01*
X141758286Y-94662389D01*
X141671522Y-94512111D01*
X141671521Y-94512109D01*
X141555407Y-94383152D01*
X141415030Y-94281161D01*
X141415022Y-94281157D01*
X141294401Y-94227452D01*
X141255415Y-94186369D01*
X141250500Y-94159850D01*
X141250500Y-93899500D01*
X141272174Y-93847174D01*
X141324500Y-93825500D01*
X141689819Y-93825500D01*
X141689820Y-93825500D01*
X141733722Y-93816767D01*
X141783504Y-93783504D01*
X141816767Y-93733722D01*
X141825500Y-93689820D01*
X141825500Y-93324500D01*
X141847174Y-93272174D01*
X141899500Y-93250500D01*
X142735587Y-93250500D01*
X142787913Y-93272174D01*
G37*
%TD.AperFunction*%
%TA.AperFunction,Conductor*%
G36*
X158057913Y-98412174D02*
G01*
X158226211Y-98580472D01*
X158247885Y-98632798D01*
X158242415Y-98658539D01*
X158242912Y-98658701D01*
X158188093Y-98827418D01*
X158188092Y-98827422D01*
X158188092Y-98827424D01*
X158169953Y-99000000D01*
X158187455Y-99166520D01*
X158188093Y-99172581D01*
X158241711Y-99337605D01*
X158241716Y-99337615D01*
X158328475Y-99487885D01*
X158328478Y-99487890D01*
X158415715Y-99584776D01*
X158441385Y-99613286D01*
X158444592Y-99616847D01*
X158584969Y-99718838D01*
X158584971Y-99718838D01*
X158584976Y-99718842D01*
X158705600Y-99772547D01*
X158744585Y-99813628D01*
X158749500Y-99840148D01*
X158749500Y-100159850D01*
X158727826Y-100212176D01*
X158705599Y-100227452D01*
X158584978Y-100281156D01*
X158584973Y-100281159D01*
X158444592Y-100383152D01*
X158328478Y-100512109D01*
X158328475Y-100512114D01*
X158241712Y-100662391D01*
X158230024Y-100698367D01*
X158193242Y-100741434D01*
X158159646Y-100749500D01*
X158030172Y-100749500D01*
X157958705Y-100779102D01*
X157902068Y-100779102D01*
X157878061Y-100763061D01*
X157865000Y-100750000D01*
X157165000Y-100750000D01*
X157165000Y-100965500D01*
X157143326Y-101017826D01*
X157091000Y-101039500D01*
X156739000Y-101039500D01*
X156686674Y-101017826D01*
X156665000Y-100965500D01*
X156665000Y-100250000D01*
X157165000Y-100250000D01*
X157864999Y-100250000D01*
X157864999Y-100201693D01*
X157864998Y-100201687D01*
X157854855Y-100102391D01*
X157801547Y-99941517D01*
X157712573Y-99797268D01*
X157682631Y-99767326D01*
X157660957Y-99715000D01*
X157682631Y-99662674D01*
X157712573Y-99632731D01*
X157801547Y-99488482D01*
X157854855Y-99327608D01*
X157864999Y-99228311D01*
X157865000Y-99228309D01*
X157865000Y-99180000D01*
X157165000Y-99180000D01*
X157165000Y-100250000D01*
X156665000Y-100250000D01*
X156665000Y-98754000D01*
X156686674Y-98701674D01*
X156739000Y-98680000D01*
X157864999Y-98680000D01*
X157864999Y-98631693D01*
X157864998Y-98631687D01*
X157854855Y-98532391D01*
X157840072Y-98487776D01*
X157844188Y-98431288D01*
X157887040Y-98394256D01*
X157910316Y-98390500D01*
X158005587Y-98390500D01*
X158057913Y-98412174D01*
G37*
%TD.AperFunction*%
%TA.AperFunction,Conductor*%
G36*
X157967214Y-96323795D02*
G01*
X157979331Y-96333592D01*
X158226211Y-96580472D01*
X158247885Y-96632798D01*
X158242415Y-96658539D01*
X158242912Y-96658701D01*
X158188093Y-96827418D01*
X158188092Y-96827422D01*
X158188092Y-96827424D01*
X158169953Y-97000000D01*
X158186875Y-97161000D01*
X158188093Y-97172581D01*
X158241711Y-97337605D01*
X158241716Y-97337615D01*
X158328475Y-97487885D01*
X158328478Y-97487890D01*
X158418746Y-97588142D01*
X158433376Y-97604391D01*
X158444592Y-97616847D01*
X158584969Y-97718838D01*
X158584971Y-97718838D01*
X158584976Y-97718842D01*
X158705600Y-97772547D01*
X158744585Y-97813628D01*
X158749500Y-97840148D01*
X158749500Y-98159850D01*
X158727826Y-98212176D01*
X158705599Y-98227452D01*
X158666341Y-98244931D01*
X158609723Y-98246414D01*
X158583916Y-98229655D01*
X158281898Y-97927637D01*
X158281894Y-97927634D01*
X158189828Y-97889500D01*
X157370032Y-97889500D01*
X157317706Y-97867826D01*
X157296032Y-97815500D01*
X157317706Y-97763174D01*
X157346756Y-97745256D01*
X157448482Y-97711547D01*
X157592731Y-97622573D01*
X157712573Y-97502731D01*
X157801547Y-97358482D01*
X157854855Y-97197608D01*
X157864999Y-97098311D01*
X157865000Y-97098309D01*
X157865000Y-97050000D01*
X156739000Y-97050000D01*
X156686674Y-97028326D01*
X156665000Y-96976000D01*
X156665000Y-96624000D01*
X156686674Y-96571674D01*
X156739000Y-96550000D01*
X157864999Y-96550000D01*
X157864999Y-96501693D01*
X157864998Y-96501687D01*
X157854856Y-96402399D01*
X157854645Y-96401413D01*
X157854715Y-96401026D01*
X157854445Y-96398374D01*
X157855218Y-96398295D01*
X157864882Y-96345709D01*
X157911510Y-96313558D01*
X157967214Y-96323795D01*
G37*
%TD.AperFunction*%
%TA.AperFunction,Conductor*%
G36*
X147007913Y-94302174D02*
G01*
X147254191Y-94548452D01*
X147451483Y-94745743D01*
X147473157Y-94798069D01*
X147451483Y-94850395D01*
X147431658Y-94864550D01*
X147358788Y-94900174D01*
X147280115Y-94978847D01*
X147227789Y-95000521D01*
X147175463Y-94978847D01*
X147157545Y-94949797D01*
X147141547Y-94901517D01*
X147052573Y-94757268D01*
X146932731Y-94637426D01*
X146788482Y-94548452D01*
X146627608Y-94495144D01*
X146528311Y-94485000D01*
X146505000Y-94485000D01*
X146505000Y-95992000D01*
X146518326Y-96005326D01*
X146540000Y-96057652D01*
X146540000Y-96735000D01*
X147264999Y-96735000D01*
X147264999Y-96711693D01*
X147264998Y-96711687D01*
X147254855Y-96612391D01*
X147201547Y-96451517D01*
X147112573Y-96307268D01*
X147061696Y-96256391D01*
X147040022Y-96204065D01*
X147051040Y-96165216D01*
X147141547Y-96018483D01*
X147141547Y-96018482D01*
X147157545Y-95970203D01*
X147194577Y-95927350D01*
X147251064Y-95923234D01*
X147280115Y-95941152D01*
X147358789Y-96019826D01*
X147471375Y-96074866D01*
X147491169Y-96077749D01*
X147539822Y-96106740D01*
X147554500Y-96150976D01*
X147554500Y-96834829D01*
X147592634Y-96926894D01*
X147592637Y-96926898D01*
X147777826Y-97112087D01*
X147799500Y-97164413D01*
X147799500Y-97400500D01*
X147777826Y-97452826D01*
X147725500Y-97474500D01*
X147691520Y-97474500D01*
X147681213Y-97476550D01*
X147629391Y-97486857D01*
X147558935Y-97533934D01*
X147558934Y-97533935D01*
X147511858Y-97604390D01*
X147507138Y-97628120D01*
X147475672Y-97675212D01*
X147462879Y-97682050D01*
X147428822Y-97696157D01*
X147311322Y-97786317D01*
X147311320Y-97786319D01*
X147233255Y-97888054D01*
X147184205Y-97916372D01*
X147129498Y-97901713D01*
X147122221Y-97895331D01*
X147053423Y-97826533D01*
X147031749Y-97774207D01*
X147053423Y-97721881D01*
X147112574Y-97662729D01*
X147201547Y-97518482D01*
X147254855Y-97357608D01*
X147264999Y-97258311D01*
X147265000Y-97258309D01*
X147265000Y-97235000D01*
X146114000Y-97235000D01*
X146061674Y-97213326D01*
X146040000Y-97161000D01*
X146040000Y-96478000D01*
X146026674Y-96464674D01*
X146005000Y-96412348D01*
X146005000Y-95710000D01*
X145305001Y-95710000D01*
X145305001Y-95758312D01*
X145315144Y-95857608D01*
X145368452Y-96018482D01*
X145457426Y-96162731D01*
X145482369Y-96187674D01*
X145504043Y-96240000D01*
X145482369Y-96292326D01*
X145467426Y-96307268D01*
X145377964Y-96452309D01*
X145332046Y-96485466D01*
X145286649Y-96478140D01*
X145285456Y-96481022D01*
X145278723Y-96478233D01*
X145256771Y-96473866D01*
X145234820Y-96469500D01*
X145234819Y-96469500D01*
X144494500Y-96469500D01*
X144442174Y-96447826D01*
X144420500Y-96395500D01*
X144420500Y-95161688D01*
X145305000Y-95161688D01*
X145305000Y-95210000D01*
X146005000Y-95210000D01*
X146005000Y-94485000D01*
X145981693Y-94485000D01*
X145981686Y-94485001D01*
X145882391Y-94495144D01*
X145721517Y-94548452D01*
X145577268Y-94637426D01*
X145457426Y-94757268D01*
X145368452Y-94901517D01*
X145315144Y-95062391D01*
X145305000Y-95161688D01*
X144420500Y-95161688D01*
X144420500Y-94434412D01*
X144442174Y-94382086D01*
X144522086Y-94302174D01*
X144574412Y-94280500D01*
X146955587Y-94280500D01*
X147007913Y-94302174D01*
G37*
%TD.AperFunction*%
%TA.AperFunction,Conductor*%
G36*
X158211972Y-95272174D02*
G01*
X158230024Y-95301633D01*
X158241712Y-95337608D01*
X158328475Y-95487885D01*
X158328478Y-95487890D01*
X158444592Y-95616847D01*
X158584969Y-95718838D01*
X158584971Y-95718838D01*
X158584976Y-95718842D01*
X158705600Y-95772547D01*
X158744585Y-95813628D01*
X158749500Y-95840148D01*
X158749500Y-96159850D01*
X158727826Y-96212176D01*
X158705599Y-96227452D01*
X158666341Y-96244931D01*
X158609723Y-96246414D01*
X158583916Y-96229655D01*
X158031898Y-95677637D01*
X158031894Y-95677634D01*
X157939828Y-95639500D01*
X155758448Y-95639500D01*
X155758440Y-95639499D01*
X155749828Y-95639499D01*
X155650173Y-95639499D01*
X155623615Y-95650500D01*
X155558103Y-95677635D01*
X155558102Y-95677637D01*
X155487636Y-95748103D01*
X155487635Y-95748104D01*
X155351978Y-95883761D01*
X155212695Y-96023043D01*
X155152637Y-96083101D01*
X155152635Y-96083104D01*
X155131537Y-96134039D01*
X155091488Y-96174087D01*
X155073840Y-96178947D01*
X155031374Y-96185134D01*
X155031373Y-96185134D01*
X154918789Y-96240173D01*
X154830173Y-96328789D01*
X154775134Y-96441373D01*
X154775134Y-96441374D01*
X154764500Y-96514359D01*
X154764500Y-97085640D01*
X154775134Y-97158625D01*
X154775134Y-97158626D01*
X154830173Y-97271210D01*
X154902137Y-97343174D01*
X154923811Y-97395500D01*
X154902137Y-97447826D01*
X154849811Y-97469500D01*
X154780172Y-97469500D01*
X154688105Y-97507634D01*
X154506826Y-97688913D01*
X154454500Y-97710587D01*
X154402174Y-97688913D01*
X154380500Y-97636587D01*
X154380500Y-95944413D01*
X154402174Y-95892087D01*
X155022087Y-95272174D01*
X155074413Y-95250500D01*
X158159646Y-95250500D01*
X158211972Y-95272174D01*
G37*
%TD.AperFunction*%
%TA.AperFunction,Conductor*%
G36*
X158270480Y-91302595D02*
G01*
X158279846Y-91305436D01*
X158293249Y-91310988D01*
X158409972Y-91373378D01*
X158422029Y-91381434D01*
X158444653Y-91400000D01*
X158524342Y-91465399D01*
X158534600Y-91475657D01*
X158618562Y-91577965D01*
X158626621Y-91590027D01*
X158689011Y-91706750D01*
X158694563Y-91720152D01*
X158732983Y-91846805D01*
X158735813Y-91861033D01*
X158749144Y-91996385D01*
X158749500Y-92003638D01*
X158749500Y-92159850D01*
X158727826Y-92212176D01*
X158705599Y-92227452D01*
X158584978Y-92281156D01*
X158584973Y-92281159D01*
X158444592Y-92383152D01*
X158328478Y-92512109D01*
X158328475Y-92512114D01*
X158241712Y-92662391D01*
X158230024Y-92698367D01*
X158193242Y-92741434D01*
X158159646Y-92749500D01*
X156220172Y-92749500D01*
X156128105Y-92787634D01*
X153517634Y-95398105D01*
X153479500Y-95490170D01*
X153479500Y-97421213D01*
X153457826Y-97473539D01*
X153405500Y-97495213D01*
X153377184Y-97489581D01*
X153370609Y-97486858D01*
X153370604Y-97486857D01*
X153308480Y-97474500D01*
X152599500Y-97474500D01*
X152547174Y-97452826D01*
X152525500Y-97400500D01*
X152525500Y-96691521D01*
X152523455Y-96681239D01*
X152513142Y-96629391D01*
X152513140Y-96629388D01*
X152513140Y-96629387D01*
X152512969Y-96629130D01*
X152512790Y-96628540D01*
X152510352Y-96622653D01*
X152510931Y-96622412D01*
X152500500Y-96588022D01*
X152500500Y-95914413D01*
X152522174Y-95862087D01*
X155212363Y-93171898D01*
X155212364Y-93171897D01*
X155250500Y-93079828D01*
X155250500Y-92980173D01*
X155250500Y-91840148D01*
X155272174Y-91787822D01*
X155294395Y-91772549D01*
X155415024Y-91718842D01*
X155422819Y-91713179D01*
X155555407Y-91616847D01*
X155555406Y-91616847D01*
X155555410Y-91616845D01*
X155671522Y-91487889D01*
X155686914Y-91461230D01*
X155731847Y-91426751D01*
X155787999Y-91434143D01*
X155822478Y-91479076D01*
X155825000Y-91498229D01*
X155825000Y-91722828D01*
X155831402Y-91782375D01*
X155831403Y-91782380D01*
X155881645Y-91917087D01*
X155881646Y-91917088D01*
X155967811Y-92032188D01*
X156082911Y-92118353D01*
X156082912Y-92118354D01*
X156217619Y-92168596D01*
X156217624Y-92168597D01*
X156277171Y-92175000D01*
X156750000Y-92175000D01*
X156750000Y-91324500D01*
X156752581Y-91318267D01*
X156754394Y-91320080D01*
X156845606Y-91372741D01*
X156947339Y-91400000D01*
X157052661Y-91400000D01*
X157154394Y-91372741D01*
X157245606Y-91320080D01*
X157247418Y-91318267D01*
X157250000Y-91324500D01*
X157250000Y-92175000D01*
X157722829Y-92175000D01*
X157782375Y-92168597D01*
X157782380Y-92168596D01*
X157917087Y-92118354D01*
X157917088Y-92118353D01*
X158032188Y-92032188D01*
X158118353Y-91917088D01*
X158118354Y-91917087D01*
X158168596Y-91782380D01*
X158168597Y-91782375D01*
X158175000Y-91722828D01*
X158175000Y-91373409D01*
X158196674Y-91321083D01*
X158249000Y-91299409D01*
X158270480Y-91302595D01*
G37*
%TD.AperFunction*%
%TA.AperFunction,Conductor*%
G36*
X154211972Y-91272174D02*
G01*
X154230024Y-91301633D01*
X154241712Y-91337608D01*
X154328475Y-91487885D01*
X154328478Y-91487890D01*
X154444592Y-91616847D01*
X154584969Y-91718838D01*
X154584971Y-91718838D01*
X154584976Y-91718842D01*
X154705600Y-91772547D01*
X154744585Y-91813628D01*
X154749500Y-91840148D01*
X154749500Y-92895587D01*
X154727826Y-92947913D01*
X152126826Y-95548913D01*
X152074500Y-95570587D01*
X152022174Y-95548913D01*
X152000500Y-95496587D01*
X152000500Y-94774411D01*
X152022173Y-94722086D01*
X153131488Y-93612770D01*
X153131491Y-93612769D01*
X153141896Y-93602364D01*
X153141897Y-93602364D01*
X153212364Y-93531897D01*
X153250500Y-93439828D01*
X153250500Y-91840148D01*
X153272174Y-91787822D01*
X153294395Y-91772549D01*
X153415024Y-91718842D01*
X153422819Y-91713179D01*
X153555407Y-91616847D01*
X153555406Y-91616847D01*
X153555410Y-91616845D01*
X153671522Y-91487889D01*
X153758286Y-91337611D01*
X153766936Y-91310988D01*
X153769976Y-91301633D01*
X153806758Y-91258566D01*
X153840354Y-91250500D01*
X154159646Y-91250500D01*
X154211972Y-91272174D01*
G37*
%TD.AperFunction*%
%TA.AperFunction,Conductor*%
G36*
X148211972Y-91272174D02*
G01*
X148230024Y-91301633D01*
X148241712Y-91337608D01*
X148328475Y-91487885D01*
X148328478Y-91487890D01*
X148444592Y-91616847D01*
X148584969Y-91718838D01*
X148584971Y-91718838D01*
X148584976Y-91718842D01*
X148705600Y-91772547D01*
X148744585Y-91813628D01*
X148749500Y-91840148D01*
X148749500Y-92329829D01*
X148787634Y-92421894D01*
X148787636Y-92421897D01*
X149637913Y-93272174D01*
X150477826Y-94112086D01*
X150499500Y-94164412D01*
X150499500Y-94836587D01*
X150477826Y-94888913D01*
X150425500Y-94910587D01*
X150373174Y-94888913D01*
X147344523Y-91860262D01*
X147322849Y-91807936D01*
X147344523Y-91755610D01*
X147366747Y-91740335D01*
X147415024Y-91718842D01*
X147422819Y-91713179D01*
X147555407Y-91616847D01*
X147555406Y-91616847D01*
X147555410Y-91616845D01*
X147671522Y-91487889D01*
X147758286Y-91337611D01*
X147766936Y-91310988D01*
X147769976Y-91301633D01*
X147806758Y-91258566D01*
X147840354Y-91250500D01*
X148159646Y-91250500D01*
X148211972Y-91272174D01*
G37*
%TD.AperFunction*%
%TA.AperFunction,Conductor*%
G36*
X158211972Y-93272174D02*
G01*
X158230024Y-93301633D01*
X158241712Y-93337608D01*
X158328475Y-93487885D01*
X158328478Y-93487890D01*
X158444592Y-93616847D01*
X158584969Y-93718838D01*
X158584971Y-93718838D01*
X158584976Y-93718842D01*
X158705600Y-93772547D01*
X158744585Y-93813628D01*
X158749500Y-93840148D01*
X158749500Y-94159850D01*
X158727826Y-94212176D01*
X158705599Y-94227452D01*
X158584978Y-94281156D01*
X158584973Y-94281159D01*
X158444592Y-94383152D01*
X158328478Y-94512109D01*
X158328475Y-94512114D01*
X158241712Y-94662391D01*
X158230024Y-94698367D01*
X158193242Y-94741434D01*
X158159646Y-94749500D01*
X155053412Y-94749500D01*
X155001086Y-94727826D01*
X154979412Y-94675500D01*
X155001086Y-94623174D01*
X155646506Y-93977755D01*
X156352087Y-93272174D01*
X156404413Y-93250500D01*
X158159646Y-93250500D01*
X158211972Y-93272174D01*
G37*
%TD.AperFunction*%
%TA.AperFunction,Conductor*%
G36*
X152211972Y-91272174D02*
G01*
X152230024Y-91301633D01*
X152241712Y-91337608D01*
X152328475Y-91487885D01*
X152328478Y-91487890D01*
X152444592Y-91616847D01*
X152584969Y-91718838D01*
X152584971Y-91718838D01*
X152584976Y-91718842D01*
X152705600Y-91772547D01*
X152744585Y-91813628D01*
X152749500Y-91840148D01*
X152749500Y-93255586D01*
X152727826Y-93307912D01*
X151626826Y-94408912D01*
X151574500Y-94430586D01*
X151522174Y-94408912D01*
X151500500Y-94356586D01*
X151500500Y-93250172D01*
X151500499Y-93250170D01*
X151462365Y-93158105D01*
X151462363Y-93158102D01*
X151272174Y-92967913D01*
X151250500Y-92915587D01*
X151250500Y-91840148D01*
X151272174Y-91787822D01*
X151294395Y-91772549D01*
X151415024Y-91718842D01*
X151422819Y-91713179D01*
X151555407Y-91616847D01*
X151555406Y-91616847D01*
X151555410Y-91616845D01*
X151671522Y-91487889D01*
X151758286Y-91337611D01*
X151766936Y-91310988D01*
X151769976Y-91301633D01*
X151806758Y-91258566D01*
X151840354Y-91250500D01*
X152159646Y-91250500D01*
X152211972Y-91272174D01*
G37*
%TD.AperFunction*%
%TA.AperFunction,Conductor*%
G36*
X150211972Y-91272174D02*
G01*
X150230024Y-91301633D01*
X150241712Y-91337608D01*
X150328475Y-91487885D01*
X150328478Y-91487890D01*
X150444592Y-91616847D01*
X150584969Y-91718838D01*
X150584971Y-91718838D01*
X150584976Y-91718842D01*
X150705600Y-91772547D01*
X150744585Y-91813628D01*
X150749500Y-91840148D01*
X150749500Y-93099829D01*
X150787634Y-93191894D01*
X150787637Y-93191898D01*
X150977826Y-93382087D01*
X150999500Y-93434413D01*
X150999500Y-93746587D01*
X150977826Y-93798913D01*
X150925500Y-93820587D01*
X150873174Y-93798913D01*
X149272174Y-92197913D01*
X149250500Y-92145587D01*
X149250500Y-91840148D01*
X149272174Y-91787822D01*
X149294395Y-91772549D01*
X149415024Y-91718842D01*
X149422819Y-91713179D01*
X149555407Y-91616847D01*
X149555406Y-91616847D01*
X149555410Y-91616845D01*
X149671522Y-91487889D01*
X149758286Y-91337611D01*
X149766936Y-91310988D01*
X149769976Y-91301633D01*
X149806758Y-91258566D01*
X149840354Y-91250500D01*
X150159646Y-91250500D01*
X150211972Y-91272174D01*
G37*
%TD.AperFunction*%
%TA.AperFunction,Conductor*%
G36*
X144211972Y-91272174D02*
G01*
X144230024Y-91301633D01*
X144241712Y-91337608D01*
X144328475Y-91487885D01*
X144328478Y-91487890D01*
X144444592Y-91616847D01*
X144584969Y-91718838D01*
X144584971Y-91718838D01*
X144584976Y-91718842D01*
X144705600Y-91772547D01*
X144744585Y-91813628D01*
X144749500Y-91840148D01*
X144749500Y-92509829D01*
X144787634Y-92601894D01*
X144787636Y-92601897D01*
X144913565Y-92727826D01*
X144928914Y-92743174D01*
X144950588Y-92795500D01*
X144928914Y-92847826D01*
X144876588Y-92869500D01*
X144064412Y-92869500D01*
X144012086Y-92847826D01*
X143272174Y-92107913D01*
X143250500Y-92055587D01*
X143250500Y-91840148D01*
X143272174Y-91787822D01*
X143294395Y-91772549D01*
X143415024Y-91718842D01*
X143422819Y-91713179D01*
X143555407Y-91616847D01*
X143555406Y-91616847D01*
X143555410Y-91616845D01*
X143671522Y-91487889D01*
X143758286Y-91337611D01*
X143766936Y-91310988D01*
X143769976Y-91301633D01*
X143806758Y-91258566D01*
X143840354Y-91250500D01*
X144159646Y-91250500D01*
X144211972Y-91272174D01*
G37*
%TD.AperFunction*%
%TA.AperFunction,Conductor*%
G36*
X146211972Y-91272174D02*
G01*
X146230024Y-91301633D01*
X146241712Y-91337608D01*
X146328475Y-91487885D01*
X146328478Y-91487890D01*
X146444592Y-91616847D01*
X146584969Y-91718838D01*
X146584971Y-91718838D01*
X146584976Y-91718842D01*
X146705600Y-91772547D01*
X146744585Y-91813628D01*
X146749500Y-91840148D01*
X146749500Y-91919829D01*
X146787634Y-92011894D01*
X146787637Y-92011898D01*
X147118913Y-92343174D01*
X147140587Y-92395500D01*
X147118913Y-92447826D01*
X147066587Y-92469500D01*
X145394412Y-92469500D01*
X145342086Y-92447826D01*
X145272174Y-92377913D01*
X145250500Y-92325587D01*
X145250500Y-91840148D01*
X145272174Y-91787822D01*
X145294395Y-91772549D01*
X145415024Y-91718842D01*
X145422819Y-91713179D01*
X145555407Y-91616847D01*
X145555406Y-91616847D01*
X145555410Y-91616845D01*
X145671522Y-91487889D01*
X145758286Y-91337611D01*
X145766936Y-91310988D01*
X145769976Y-91301633D01*
X145806758Y-91258566D01*
X145840354Y-91250500D01*
X146159646Y-91250500D01*
X146211972Y-91272174D01*
G37*
%TD.AperFunction*%
%TD*%
M02*
